  0
SECTION
  2
HEADER
  9
$ACADVER
  1
AC1018
  9
$ACADMAINTVER
 70
     0
  9
$DWGCODEPAGE
  3
ANSI_932
  9
$INSBASE
 10
0.0
 20
0.0
 30
0.0
  9
$EXTMIN
 10
1.000000000000000E+20
 20
1.000000000000000E+20
 30
1.000000000000000E+20
  9
$EXTMAX
 10
-1.000000000000000E+20
 20
-1.000000000000000E+20
 30
-1.000000000000000E+20
  9
$LIMMIN
 10
0.0
 20
0.0
  9
$LIMMAX
 10
12.0
 20
9.0
  9
$ORTHOMODE
 70
     0
  9
$REGENMODE
 70
     1
  9
$FILLMODE
 70
     1
  9
$QTEXTMODE
 70
     0
  9
$MIRRTEXT
 70
     1
  9
$LTSCALE
 40
1.0
  9
$ATTMODE
 70
     1
  9
$TEXTSIZE
 40
0.2
  9
$TRACEWID
 40
0.05
  9
$TEXTSTYLE
  7
Standard
  9
$CLAYER
  8
0
  9
$CELTYPE
  6
ByLayer
  9
$CECOLOR
 62
   256
  9
$CELTSCALE
 40
1.0
  9
$DISPSILH
 70
     0
  9
$DIMSCALE
 40
1.0
  9
$DIMASZ
 40
0.18
  9
$DIMEXO
 40
0.0625
  9
$DIMDLI
 40
0.38
  9
$DIMRND
 40
0.0
  9
$DIMDLE
 40
0.0
  9
$DIMEXE
 40
0.18
  9
$DIMTP
 40
0.0
  9
$DIMTM
 40
0.0
  9
$DIMTXT
 40
0.18
  9
$DIMCEN
 40
0.09
  9
$DIMTSZ
 40
0.0
  9
$DIMTOL
 70
     0
  9
$DIMLIM
 70
     0
  9
$DIMTIH
 70
     1
  9
$DIMTOH
 70
     1
  9
$DIMSE1
 70
     0
  9
$DIMSE2
 70
     0
  9
$DIMTAD
 70
     0
  9
$DIMZIN
 70
     0
  9
$DIMBLK
  1

  9
$DIMASO
 70
     1
  9
$DIMSHO
 70
     1
  9
$DIMPOST
  1

  9
$DIMAPOST
  1

  9
$DIMALT
 70
     0
  9
$DIMALTD
 70
     2
  9
$DIMALTF
 40
25.4
  9
$DIMLFAC
 40
1.0
  9
$DIMTOFL
 70
     0
  9
$DIMTVP
 40
0.0
  9
$DIMTIX
 70
     0
  9
$DIMSOXD
 70
     0
  9
$DIMSAH
 70
     0
  9
$DIMBLK1
  1

  9
$DIMBLK2
  1

  9
$DIMSTYLE
  2
Standard
  9
$DIMCLRD
 70
     0
  9
$DIMCLRE
 70
     0
  9
$DIMCLRT
 70
     0
  9
$DIMTFAC
 40
1.0
  9
$DIMGAP
 40
0.09
  9
$DIMJUST
 70
     0
  9
$DIMSD1
 70
     0
  9
$DIMSD2
 70
     0
  9
$DIMTOLJ
 70
     1
  9
$DIMTZIN
 70
     0
  9
$DIMALTZ
 70
     0
  9
$DIMALTTZ
 70
     0
  9
$DIMUPT
 70
     0
  9
$DIMDEC
 70
     4
  9
$DIMTDEC
 70
     4
  9
$DIMALTU
 70
     2
  9
$DIMALTTD
 70
     2
  9
$DIMTXSTY
  7
Standard
  9
$DIMAUNIT
 70
     0
  9
$DIMADEC
 70
     0
  9
$DIMALTRND
 40
0.0
  9
$DIMAZIN
 70
     0
  9
$DIMDSEP
 70
    46
  9
$DIMATFIT
 70
     3
  9
$DIMFRAC
 70
     0
  9
$DIMLDRBLK
  1

  9
$DIMLUNIT
 70
     2
  9
$DIMLWD
 70
    -2
  9
$DIMLWE
 70
    -2
  9
$DIMTMOVE
 70
     0
  9
$LUNITS
 70
     2
  9
$LUPREC
 70
     4
  9
$SKETCHINC
 40
0.1
  9
$FILLETRAD
 40
0.5
  9
$AUNITS
 70
     0
  9
$AUPREC
 70
     0
  9
$MENU
  1
.
  9
$ELEVATION
 40
0.0
  9
$PELEVATION
 40
0.0
  9
$THICKNESS
 40
0.0
  9
$LIMCHECK
 70
     0
  9
$CHAMFERA
 40
0.5
  9
$CHAMFERB
 40
0.5
  9
$CHAMFERC
 40
1.0
  9
$CHAMFERD
 40
0.0
  9
$SKPOLY
 70
     0
  9
$TDCREATE
 40
2457572.704456019
  9
$TDUCREATE
 40
2457573.037789352
  9
$TDUPDATE
 40
2457572.70445603
  9
$TDUUPDATE
 40
2457573.037789363
  9
$TDINDWG
 40
0.0000000116
  9
$TDUSRTIMER
 40
0.0000000116
  9
$USRTIMER
 70
     1
  9
$ANGBASE
 50
0.0
  9
$ANGDIR
 70
     0
  9
$PDMODE
 70
     0
  9
$PDSIZE
 40
0.0
  9
$PLINEWID
 40
0.0
  9
$SPLFRAME
 70
     0
  9
$SPLINETYPE
 70
     6
  9
$SPLINESEGS
 70
     8
  9
$HANDSEED
  5
76
  9
$SURFTAB1
 70
     6
  9
$SURFTAB2
 70
     6
  9
$SURFTYPE
 70
     6
  9
$SURFU
 70
     6
  9
$SURFV
 70
     6
  9
$UCSBASE
  2

  9
$UCSNAME
  2

  9
$UCSORG
 10
0.0
 20
0.0
 30
0.0
  9
$UCSXDIR
 10
1.0
 20
0.0
 30
0.0
  9
$UCSYDIR
 10
0.0
 20
1.0
 30
0.0
  9
$UCSORTHOREF
  2

  9
$UCSORTHOVIEW
 70
     0
  9
$UCSORGTOP
 10
0.0
 20
0.0
 30
0.0
  9
$UCSORGBOTTOM
 10
0.0
 20
0.0
 30
0.0
  9
$UCSORGLEFT
 10
0.0
 20
0.0
 30
0.0
  9
$UCSORGRIGHT
 10
0.0
 20
0.0
 30
0.0
  9
$UCSORGFRONT
 10
0.0
 20
0.0
 30
0.0
  9
$UCSORGBACK
 10
0.0
 20
0.0
 30
0.0
  9
$PUCSBASE
  2

  9
$PUCSNAME
  2

  9
$PUCSORG
 10
0.0
 20
0.0
 30
0.0
  9
$PUCSXDIR
 10
1.0
 20
0.0
 30
0.0
  9
$PUCSYDIR
 10
0.0
 20
1.0
 30
0.0
  9
$PUCSORTHOREF
  2

  9
$PUCSORTHOVIEW
 70
     0
  9
$PUCSORGTOP
 10
0.0
 20
0.0
 30
0.0
  9
$PUCSORGBOTTOM
 10
0.0
 20
0.0
 30
0.0
  9
$PUCSORGLEFT
 10
0.0
 20
0.0
 30
0.0
  9
$PUCSORGRIGHT
 10
0.0
 20
0.0
 30
0.0
  9
$PUCSORGFRONT
 10
0.0
 20
0.0
 30
0.0
  9
$PUCSORGBACK
 10
0.0
 20
0.0
 30
0.0
  9
$USERI1
 70
     0
  9
$USERI2
 70
     0
  9
$USERI3
 70
     0
  9
$USERI4
 70
     0
  9
$USERI5
 70
     0
  9
$USERR1
 40
0.0
  9
$USERR2
 40
0.0
  9
$USERR3
 40
0.0
  9
$USERR4
 40
0.0
  9
$USERR5
 40
0.0
  9
$WORLDVIEW
 70
     1
  9
$SHADEDGE
 70
     3
  9
$SHADEDIF
 70
    70
  9
$TILEMODE
 70
     1
  9
$MAXACTVP
 70
    64
  9
$PINSBASE
 10
0.0
 20
0.0
 30
0.0
  9
$PLIMCHECK
 70
     0
  9
$PEXTMIN
 10
1.000000000000000E+20
 20
1.000000000000000E+20
 30
1.000000000000000E+20
  9
$PEXTMAX
 10
-1.000000000000000E+20
 20
-1.000000000000000E+20
 30
-1.000000000000000E+20
  9
$PLIMMIN
 10
0.0
 20
0.0
  9
$PLIMMAX
 10
12.0
 20
9.0
  9
$UNITMODE
 70
     0
  9
$VISRETAIN
 70
     1
  9
$PLINEGEN
 70
     0
  9
$PSLTSCALE
 70
     1
  9
$TREEDEPTH
 70
  3020
  9
$CMLSTYLE
  2
Standard
  9
$CMLJUST
 70
     0
  9
$CMLSCALE
 40
1.0
  9
$PROXYGRAPHICS
 70
     1
  9
$MEASUREMENT
 70
     0
  9
$CELWEIGHT
370
    -1
  9
$ENDCAPS
280
     0
  9
$JOINSTYLE
280
     0
  9
$LWDISPLAY
290
     1
  9
$INSUNITS
 70
     1
  9
$HYPERLINKBASE
  1

  9
$STYLESHEET
  1

  9
$XEDIT
290
     1
  9
$CEPSNTYPE
380
     0
  9
$PSTYLEMODE
290
     1
  9
$FINGERPRINTGUID
  2
{7E0711A1-61C9-39E2-C6DD-071C1C8F3FAB}
  9
$VERSIONGUID
  2
{FAEB1C32-E019-11D5-929B-00C0DF256EC4}
  9
$EXTNAMES
290
     1
  9
$PSVPSCALE
 40
0.0
  9
$OLESTARTUP
290
     0
  9
$SORTENTS
280
   127
  9
$INDEXCTL
280
     0
  9
$HIDETEXT
280
     1
  9
$XCLIPFRAME
290
     0
  9
$HALOGAP
280
     0
  9
$OBSCOLOR
 70
   257
  9
$OBSLTYPE
280
     0
  9
$INTERSECTIONDISPLAY
280
     0
  9
$INTERSECTIONCOLOR
 70
   257
  9
$DIMASSOC
280
     2
  9
$PROJECTNAME
  1

  0
ENDSEC
  0
SECTION
  2
CLASSES
  0
CLASS
  1
ACDBDICTIONARYWDFLT
  2
AcDbDictionaryWithDefault
  3
ObjectDBX Classes
 90
        0
 91
        3
280
     0
281
     0
  0
CLASS
  1
VISUALSTYLE
  2
AcDbVisualStyle
  3
ObjectDBX Classes
 90
     4095
 91
        3
280
     0
281
     0
  0
ENDSEC
  0
SECTION
  2
TABLES
  0
TABLE
  2
VPORT
  5
8
330
0
100
AcDbSymbolTable
 70
     1
  0
VPORT
  5
29
330
8
100
AcDbSymbolTableRecord
100
AcDbViewportTableRecord
  2
*Active
 70
     0
 10
0.0
 20
0.0
 11
1.0
 21
1.0
 12
0.0
 22
0.0
 13
0.0
 23
0.0
 14
0.5
 24
0.5
 15
0.5
 25
0.5
 16
0.0
 26
0.0
 36
1.0
 17
48.0
 27
-132.0
 37
0.0
 40
1704.0
 41
1.215962441314554
 42
50.0
 43
0.0
 44
0.0
 50
0.0
 51
0.0
 71
     0
 72
   100
 73
     1
 74
     3
 75
     0
 76
     0
 77
     0
 78
     0
281
     0
 65
     1
110
0.0
120
0.0
130
0.0
111
1.0
121
0.0
131
0.0
112
0.0
122
1.0
132
0.0
 79
     0
146
0.0
  0
ENDTAB
  0
TABLE
  2
LTYPE
  5
5
330
0
100
AcDbSymbolTable
 70
     1
  0
LTYPE
  5
14
330
5
100
AcDbSymbolTableRecord
100
AcDbLinetypeTableRecord
  2
ByBlock
 70
     0
  3

 72
    65
 73
     0
 40
0.0
  0
LTYPE
  5
15
330
5
100
AcDbSymbolTableRecord
100
AcDbLinetypeTableRecord
  2
ByLayer
 70
     0
  3

 72
    65
 73
     0
 40
0.0
  0
LTYPE
  5
16
330
5
100
AcDbSymbolTableRecord
100
AcDbLinetypeTableRecord
  2
Continuous
 70
     0
  3
Solid line
 72
    65
 73
     0
 40
0.0
  0
ENDTAB
  0
TABLE
  2
LAYER
  5
2
330
0
100
AcDbSymbolTable
 70
     7
  0
LAYER
  5
10
330
2
100
AcDbSymbolTableRecord
100
AcDbLayerTableRecord
  2
0
 70
     0
 62
     7
  6
Continuous
370
    -3
390
F
  0
LAYER
  5
3B
330
2
100
AcDbSymbolTableRecord
100
AcDbLayerTableRecord
  2
bottomA
 70
     0
 62
     7
  6
Continuous
370
    -3
390
F
  0
LAYER
  5
4A
330
2
100
AcDbSymbolTableRecord
100
AcDbLayerTableRecord
  2
bottomB
 70
     0
 62
     7
  6
Continuous
370
    -3
390
F
  0
LAYER
  5
52
330
2
100
AcDbSymbolTableRecord
100
AcDbLayerTableRecord
  2
midA
 70
     0
 62
     7
  6
Continuous
370
    -3
390
F
  0
LAYER
  5
59
330
2
100
AcDbSymbolTableRecord
100
AcDbLayerTableRecord
  2
midB
 70
     0
 62
     7
  6
Continuous
370
    -3
390
F
  0
LAYER
  5
60
330
2
100
AcDbSymbolTableRecord
100
AcDbLayerTableRecord
  2
topA
 70
     0
 62
     7
  6
Continuous
370
    -3
390
F
  0
LAYER
  5
6A
330
2
100
AcDbSymbolTableRecord
100
AcDbLayerTableRecord
  2
topB
 70
     0
 62
     7
  6
Continuous
370
    -3
390
F
  0
ENDTAB
  0
TABLE
  2
STYLE
  5
3
330
0
100
AcDbSymbolTable
 70
     1
  0
STYLE
  5
11
330
3
100
AcDbSymbolTableRecord
100
AcDbTextStyleTableRecord
  2
Standard
 70
     0
 40
0.0
 41
1.0
 50
0.0
 71
     0
 42
0.2
  3
txt
  4

  0
ENDTAB
  0
TABLE
  2
VIEW
  5
6
330
0
100
AcDbSymbolTable
 70
     0
  0
ENDTAB
  0
TABLE
  2
UCS
  5
7
330
0
100
AcDbSymbolTable
 70
     0
  0
ENDTAB
  0
TABLE
  2
APPID
  5
9
330
0
100
AcDbSymbolTable
 70
     1
  0
APPID
  5
12
330
9
100
AcDbSymbolTableRecord
100
AcDbRegAppTableRecord
  2
ACAD
 70
     0
  0
ENDTAB
  0
TABLE
  2
DIMSTYLE
  5
A
330
0
100
AcDbSymbolTable
 70
     1
100
AcDbDimStyleTable
  0
DIMSTYLE
105
27
330
A
100
AcDbSymbolTableRecord
100
AcDbDimStyleTableRecord
  2
Standard
 70
     0
340
11
  0
ENDTAB
  0
TABLE
  2
BLOCK_RECORD
  5
1
330
0
100
AcDbSymbolTable
 70
     1
  0
BLOCK_RECORD
  5
1F
330
1
100
AcDbSymbolTableRecord
100
AcDbBlockTableRecord
  2
*Model_Space
340
22
  0
BLOCK_RECORD
  5
1B
330
1
100
AcDbSymbolTableRecord
100
AcDbBlockTableRecord
  2
*Paper_Space
340
1E
  0
BLOCK_RECORD
  5
23
330
1
100
AcDbSymbolTableRecord
100
AcDbBlockTableRecord
  2
*Paper_Space0
340
26
  0
ENDTAB
  0
ENDSEC
  0
SECTION
  2
BLOCKS
  0
BLOCK
  5
20
330
1F
100
AcDbEntity
  8
0
100
AcDbBlockBegin
  2
*Model_Space
 70
     0
 71
     0
 10
0.0
 20
0.0
 30
0.0
  3
*Model_Space
  1

  0
ENDBLK
  5
21
330
1F
100
AcDbEntity
  8
0
100
AcDbBlockEnd
  0
BLOCK
  5
1C
330
1B
100
AcDbEntity
 67
     1
  8
0
100
AcDbBlockBegin
  2
*Paper_Space
 70
     0
 71
     0
 10
0.0
 20
0.0
 30
0.0
  3
*Paper_Space
  1

  0
ENDBLK
  5
1D
330
1B
100
AcDbEntity
 67
     1
  8
0
100
AcDbBlockEnd
  0
BLOCK
  5
24
330
23
100
AcDbEntity
  8
0
100
AcDbBlockBegin
  2
*Paper_Space0
 70
     0
 71
     0
 10
0.0
 20
0.0
 30
0.0
  3
*Paper_Space0
  1

  0
ENDBLK
  5
25
330
23
100
AcDbEntity
  8
0
100
AcDbBlockEnd
  0
ENDSEC
  0
SECTION
  2
ENTITIES
  0
SPLINE
  5
3C
330
1F
100
AcDbEntity
  8
bottomA
 62
   192
420
  8201933
370
    35
100
AcDbSpline
210
0.0
220
0.0
230
1.0
 70
    11
 71
     3
 72
    17
 73
    13
 74
     0
 42
0.0000000001
 43
0.0000000001
 40
0.0
 40
0.0
 40
0.0
 40
0.0
 40
1.0
 40
1.0
 40
1.0
 40
2.0
 40
2.0
 40
2.0
 40
3.0
 40
3.0
 40
3.0
 40
4.0
 40
4.0
 40
4.0
 40
4.0
 10
-302.23681640625
 20
329.70947265625
 30
0.0
 10
-302.23681640625
 20
334.68017578125
 30
0.0
 10
-306.26611328125
 20
338.70947265625
 30
0.0
 10
-311.23681640625
 20
338.70947265625
 30
0.0
 10
-316.20751953125
 20
338.70947265625
 30
0.0
 10
-320.23681640625
 20
334.68017578125
 30
0.0
 10
-320.23681640625
 20
329.70947265625
 30
0.0
 10
-320.23681640625
 20
324.7392578125
 30
0.0
 10
-316.20751953125
 20
320.70947265625
 30
0.0
 10
-311.23681640625
 20
320.70947265625
 30
0.0
 10
-306.26611328125
 20
320.70947265625
 30
0.0
 10
-302.23681640625
 20
324.7392578125
 30
0.0
 10
-302.23681640625
 20
329.70947265625
 30
0.0
  0
SPLINE
  5
3D
330
1F
100
AcDbEntity
  8
bottomA
 62
   192
420
  8201933
370
    35
100
AcDbSpline
210
0.0
220
0.0
230
1.0
 70
    11
 71
     3
 72
    17
 73
    13
 74
     0
 42
0.0000000001
 43
0.0000000001
 40
0.0
 40
0.0
 40
0.0
 40
0.0
 40
1.0
 40
1.0
 40
1.0
 40
2.0
 40
2.0
 40
2.0
 40
3.0
 40
3.0
 40
3.0
 40
4.0
 40
4.0
 40
4.0
 40
4.0
 10
-752.95654296875
 20
329.70947265625
 30
0.0
 10
-752.95654296875
 20
334.68017578125
 30
0.0
 10
-756.986328125
 20
338.70947265625
 30
0.0
 10
-761.95654296875
 20
338.70947265625
 30
0.0
 10
-766.92724609375
 20
338.70947265625
 30
0.0
 10
-770.95654296875
 20
334.68017578125
 30
0.0
 10
-770.95654296875
 20
329.70947265625
 30
0.0
 10
-770.95654296875
 20
324.7392578125
 30
0.0
 10
-766.92724609375
 20
320.70947265625
 30
0.0
 10
-761.95654296875
 20
320.70947265625
 30
0.0
 10
-756.986328125
 20
320.70947265625
 30
0.0
 10
-752.95654296875
 20
324.7392578125
 30
0.0
 10
-752.95654296875
 20
329.70947265625
 30
0.0
  0
SPLINE
  5
3E
330
1F
100
AcDbEntity
  8
bottomA
 62
   192
420
  8201933
370
    35
100
AcDbSpline
210
0.0
220
0.0
230
1.0
 70
    11
 71
     3
 72
    17
 73
    13
 74
     0
 42
0.0000000001
 43
0.0000000001
 40
0.0
 40
0.0
 40
0.0
 40
0.0
 40
1.0
 40
1.0
 40
1.0
 40
2.0
 40
2.0
 40
2.0
 40
3.0
 40
3.0
 40
3.0
 40
4.0
 40
4.0
 40
4.0
 40
4.0
 10
-308.716796875
 20
459.3095703125
 30
0.0
 10
-308.716796875
 20
464.2802734375
 30
0.0
 10
-312.74609375
 20
468.3095703125
 30
0.0
 10
-317.716796875
 20
468.3095703125
 30
0.0
 10
-322.6875
 20
468.3095703125
 30
0.0
 10
-326.716796875
 20
464.2802734375
 30
0.0
 10
-326.716796875
 20
459.3095703125
 30
0.0
 10
-326.716796875
 20
454.33984375
 30
0.0
 10
-322.6875
 20
450.3095703125
 30
0.0
 10
-317.716796875
 20
450.3095703125
 30
0.0
 10
-312.74609375
 20
450.3095703125
 30
0.0
 10
-308.716796875
 20
454.33984375
 30
0.0
 10
-308.716796875
 20
459.3095703125
 30
0.0
  0
SPLINE
  5
3F
330
1F
100
AcDbEntity
  8
bottomA
 62
   192
420
  8201933
370
    35
100
AcDbSpline
210
0.0
220
0.0
230
1.0
 70
    11
 71
     3
 72
    17
 73
    13
 74
     0
 42
0.0000000001
 43
0.0000000001
 40
0.0
 40
0.0
 40
0.0
 40
0.0
 40
1.0
 40
1.0
 40
1.0
 40
2.0
 40
2.0
 40
2.0
 40
3.0
 40
3.0
 40
3.0
 40
4.0
 40
4.0
 40
4.0
 40
4.0
 10
-759.4365234375
 20
459.3095703125
 30
0.0
 10
-759.4365234375
 20
464.2802734375
 30
0.0
 10
-763.46630859375
 20
468.3095703125
 30
0.0
 10
-768.4365234375
 20
468.3095703125
 30
0.0
 10
-773.4072265625
 20
468.3095703125
 30
0.0
 10
-777.4365234375
 20
464.2802734375
 30
0.0
 10
-777.4365234375
 20
459.3095703125
 30
0.0
 10
-777.4365234375
 20
454.33984375
 30
0.0
 10
-773.4072265625
 20
450.3095703125
 30
0.0
 10
-768.4365234375
 20
450.3095703125
 30
0.0
 10
-763.46630859375
 20
450.3095703125
 30
0.0
 10
-759.4365234375
 20
454.33984375
 30
0.0
 10
-759.4365234375
 20
459.3095703125
 30
0.0
  0
SPLINE
  5
40
330
1F
100
AcDbEntity
  8
bottomA
 62
   192
420
  8201933
370
    35
100
AcDbSpline
210
0.0
220
0.0
230
1.0
 70
    11
 71
     3
 72
    44
 73
    40
 74
     0
 42
0.0000000001
 43
0.0000000001
 40
0.0
 40
0.0
 40
0.0
 40
0.0
 40
1.0
 40
1.0
 40
1.0
 40
2.0
 40
2.0
 40
2.0
 40
3.0
 40
3.0
 40
3.0
 40
4.0
 40
4.0
 40
4.0
 40
5.0
 40
5.0
 40
5.0
 40
6.0
 40
6.0
 40
6.0
 40
7.0
 40
7.0
 40
7.0
 40
8.0
 40
8.0
 40
8.0
 40
9.0
 40
9.0
 40
9.0
 40
10.0
 40
10.0
 40
10.0
 40
11.0
 40
11.0
 40
11.0
 40
12.0
 40
12.0
 40
12.0
 40
13.0
 40
13.0
 40
13.0
 40
13.0
 10
-790.630859375
 20
86.8603515625
 30
0.0
 10
-749.89892578125
 20
16.3095703125
 30
0.0
 10
-709.1669921875
 20
-54.240234375
 30
0.0
 10
-668.4345703125
 20
-124.7900390625
 30
0.0
 10
-666.8271484375
 20
-127.57421875
 30
0.0
 10
-663.85595703125
 20
-129.2900390625
 30
0.0
 10
-660.640625
 20
-129.2900390625
 30
0.0
 10
-620.37255859375
 20
-129.2900390625
 30
0.0
 10
-580.1044921875
 20
-129.2900390625
 30
0.0
 10
-539.8369140625
 20
-129.2900390625
 30
0.0
 10
-499.56884765625
 20
-129.2900390625
 30
0.0
 10
-459.30078125
 20
-129.2900390625
 30
0.0
 10
-419.03271484375
 20
-129.2900390625
 30
0.0
 10
-415.8173828125
 20
-129.2900390625
 30
0.0
 10
-412.84619140625
 20
-127.57421875
 30
0.0
 10
-411.23876953125
 20
-124.7900390625
 30
0.0
 10
-370.5068359375
 20
-54.240234375
 30
0.0
 10
-329.7744140625
 20
16.3095703125
 30
0.0
 10
-289.04248046875
 20
86.8603515625
 30
0.0
 10
-288.2138671875
 20
88.294921875
 30
0.0
 10
-287.8369140625
 20
89.703125
 30
0.0
 10
-287.8369140625
 20
91.3603515625
 30
0.0
 10
-287.8369140625
 20
101.8095703125
 30
0.0
 10
-287.8369140625
 20
112.259765625
 30
0.0
 10
-287.8369140625
 20
122.7099609375
 30
0.0
 10
-287.8369140625
 20
254.70947265625
 30
0.0
 10
-287.8369140625
 20
386.70947265625
 30
0.0
 10
-287.8369140625
 20
518.7099609375
 30
0.0
 10
-455.8369140625
 20
518.7099609375
 30
0.0
 10
-623.8369140625
 20
518.7099609375
 30
0.0
 10
-791.8369140625
 20
518.7099609375
 30
0.0
 10
-791.8369140625
 20
386.70947265625
 30
0.0
 10
-791.8369140625
 20
254.70947265625
 30
0.0
 10
-791.8369140625
 20
122.7099609375
 30
0.0
 10
-791.8369140625
 20
112.259765625
 30
0.0
 10
-791.8369140625
 20
101.8095703125
 30
0.0
 10
-791.8369140625
 20
91.3603515625
 30
0.0
 10
-791.8369140625
 20
89.703125
 30
0.0
 10
-791.45947265625
 20
88.294921875
 30
0.0
 10
-790.630859375
 20
86.8603515625
 30
0.0
  0
POLYLINE
  5
41
330
1F
100
AcDbEntity
  8
bottomA
 62
   192
420
  8201933
370
    35
100
AcDb2dPolyline
 66
     1
 10
0.0
 20
0.0
 30
0.0
  0
VERTEX
  5
42
330
41
100
AcDbEntity
  8
bottomA
 62
   192
420
  8201933
370
    35
100
AcDbVertex
100
AcDb2dVertex
 10
-429.08642578125
 20
257.00341796875
 30
0.0
  0
VERTEX
  5
43
330
41
100
AcDbEntity
  8
bottomA
 62
   192
420
  8201933
370
    35
100
AcDbVertex
100
AcDb2dVertex
 10
-360.638671875
 20
46.34375
 30
0.0
  0
VERTEX
  5
44
330
41
100
AcDbEntity
  8
bottomA
 62
   192
420
  8201933
370
    35
100
AcDbVertex
100
AcDb2dVertex
 10
-539.8369140625
 20
-83.8515625
 30
0.0
  0
VERTEX
  5
45
330
41
100
AcDbEntity
  8
bottomA
 62
   192
420
  8201933
370
    35
100
AcDbVertex
100
AcDb2dVertex
 10
-719.03466796875
 20
46.34375
 30
0.0
  0
VERTEX
  5
46
330
41
100
AcDbEntity
  8
bottomA
 62
   192
420
  8201933
370
    35
100
AcDbVertex
100
AcDb2dVertex
 10
-650.58740234375
 20
257.00341796875
 30
0.0
  0
VERTEX
  5
47
330
41
100
AcDbEntity
  8
bottomA
 62
   192
420
  8201933
370
    35
100
AcDbVertex
100
AcDb2dVertex
 10
-429.08642578125
 20
257.00341796875
 30
0.0
  0
SEQEND
  5
48
330
41
100
AcDbEntity
  8
bottomA
370
    35
  0
SPLINE
  5
49
330
1F
100
AcDbEntity
  8
bottomA
 62
   192
420
  8201933
370
    35
100
AcDbSpline
210
0.0
220
0.0
230
1.0
 70
    11
 71
     3
 72
    17
 73
    13
 74
     0
 42
0.0000000001
 43
0.0000000001
 40
0.0
 40
0.0
 40
0.0
 40
0.0
 40
1.0
 40
1.0
 40
1.0
 40
2.0
 40
2.0
 40
2.0
 40
3.0
 40
3.0
 40
3.0
 40
4.0
 40
4.0
 40
4.0
 40
4.0
 10
-374.51611328125
 20
484.4443359375
 30
0.0
 10
-374.51611328125
 20
476.61669921875
 30
0.0
 10
-380.861328125
 20
470.27099609375
 30
0.0
 10
-388.68896484375
 20
470.27099609375
 30
0.0
 10
-396.5166015625
 20
470.27099609375
 30
0.0
 10
-402.8623046875
 20
476.61669921875
 30
0.0
 10
-402.8623046875
 20
484.4443359375
 30
0.0
 10
-402.8623046875
 20
492.27197265625
 30
0.0
 10
-396.5166015625
 20
498.6171875
 30
0.0
 10
-388.68896484375
 20
498.6171875
 30
0.0
 10
-380.861328125
 20
498.6171875
 30
0.0
 10
-374.51611328125
 20
492.27197265625
 30
0.0
 10
-374.51611328125
 20
484.4443359375
 30
0.0
  0
SPLINE
  5
4B
330
1F
100
AcDbEntity
  8
bottomB
 62
     5
420
      255
370
    35
100
AcDbSpline
210
0.0
220
0.0
230
1.0
 70
    11
 71
     3
 72
    17
 73
    13
 74
     0
 42
0.0000000001
 43
0.0000000001
 40
0.0
 40
0.0
 40
0.0
 40
0.0
 40
1.0
 40
1.0
 40
1.0
 40
2.0
 40
2.0
 40
2.0
 40
3.0
 40
3.0
 40
3.0
 40
4.0
 40
4.0
 40
4.0
 40
4.0
 10
161.6201171875
 20
484.4443359375
 30
0.0
 10
161.6201171875
 20
476.61669921875
 30
0.0
 10
155.2744140625
 20
470.27099609375
 30
0.0
 10
147.447265625
 20
470.27099609375
 30
0.0
 10
139.619140625
 20
470.27099609375
 30
0.0
 10
133.2734375
 20
476.61669921875
 30
0.0
 10
133.2734375
 20
484.4443359375
 30
0.0
 10
133.2734375
 20
492.27197265625
 30
0.0
 10
139.619140625
 20
498.6171875
 30
0.0
 10
147.447265625
 20
498.6171875
 30
0.0
 10
155.2744140625
 20
498.6171875
 30
0.0
 10
161.6201171875
 20
492.27197265625
 30
0.0
 10
161.6201171875
 20
484.4443359375
 30
0.0
  0
SPLINE
  5
4C
330
1F
100
AcDbEntity
  8
bottomB
 62
     5
420
      255
370
    35
100
AcDbSpline
210
0.0
220
0.0
230
1.0
 70
    11
 71
     3
 72
    17
 73
    13
 74
     0
 42
0.0000000001
 43
0.0000000001
 40
0.0
 40
0.0
 40
0.0
 40
0.0
 40
1.0
 40
1.0
 40
1.0
 40
2.0
 40
2.0
 40
2.0
 40
3.0
 40
3.0
 40
3.0
 40
4.0
 40
4.0
 40
4.0
 40
4.0
 10
230.5546875
 20
329.70947265625
 30
0.0
 10
230.5546875
 20
332.83349609375
 30
0.0
 10
228.0224609375
 20
335.365234375
 30
0.0
 10
224.8994140625
 20
335.365234375
 30
0.0
 10
221.7763671875
 20
335.365234375
 30
0.0
 10
219.244140625
 20
332.83349609375
 30
0.0
 10
219.244140625
 20
329.70947265625
 30
0.0
 10
219.244140625
 20
326.5869140625
 30
0.0
 10
221.7763671875
 20
324.0546875
 30
0.0
 10
224.8994140625
 20
324.0546875
 30
0.0
 10
228.0224609375
 20
324.0546875
 30
0.0
 10
230.5546875
 20
326.5869140625
 30
0.0
 10
230.5546875
 20
329.70947265625
 30
0.0
  0
SPLINE
  5
4D
330
1F
100
AcDbEntity
  8
bottomB
 62
     5
420
      255
370
    35
100
AcDbSpline
210
0.0
220
0.0
230
1.0
 70
    11
 71
     3
 72
    17
 73
    13
 74
     0
 42
0.0000000001
 43
0.0000000001
 40
0.0
 40
0.0
 40
0.0
 40
0.0
 40
1.0
 40
1.0
 40
1.0
 40
2.0
 40
2.0
 40
2.0
 40
3.0
 40
3.0
 40
3.0
 40
4.0
 40
4.0
 40
4.0
 40
4.0
 10
-220.16552734375
 20
329.70947265625
 30
0.0
 10
-220.16552734375
 20
332.83349609375
 30
0.0
 10
-222.697265625
 20
335.365234375
 30
0.0
 10
-225.82080078125
 20
335.365234375
 30
0.0
 10
-228.94384765625
 20
335.365234375
 30
0.0
 10
-231.4755859375
 20
332.83349609375
 30
0.0
 10
-231.4755859375
 20
329.70947265625
 30
0.0
 10
-231.4755859375
 20
326.5869140625
 30
0.0
 10
-228.94384765625
 20
324.0546875
 30
0.0
 10
-225.82080078125
 20
324.0546875
 30
0.0
 10
-222.697265625
 20
324.0546875
 30
0.0
 10
-220.16552734375
 20
326.5869140625
 30
0.0
 10
-220.16552734375
 20
329.70947265625
 30
0.0
  0
SPLINE
  5
4E
330
1F
100
AcDbEntity
  8
bottomB
 62
     5
420
      255
370
    35
100
AcDbSpline
210
0.0
220
0.0
230
1.0
 70
    11
 71
     3
 72
    17
 73
    13
 74
     0
 42
0.0000000001
 43
0.0000000001
 40
0.0
 40
0.0
 40
0.0
 40
0.0
 40
1.0
 40
1.0
 40
1.0
 40
2.0
 40
2.0
 40
2.0
 40
3.0
 40
3.0
 40
3.0
 40
4.0
 40
4.0
 40
4.0
 40
4.0
 10
-226.6455078125
 20
459.3095703125
 30
0.0
 10
-226.6455078125
 20
462.43310546875
 30
0.0
 10
-229.177734375
 20
464.96484375
 30
0.0
 10
-232.30078125
 20
464.96484375
 30
0.0
 10
-235.423828125
 20
464.96484375
 30
0.0
 10
-237.95556640625
 20
462.43310546875
 30
0.0
 10
-237.95556640625
 20
459.3095703125
 30
0.0
 10
-237.95556640625
 20
456.18701171875
 30
0.0
 10
-235.423828125
 20
453.6552734375
 30
0.0
 10
-232.30078125
 20
453.6552734375
 30
0.0
 10
-229.177734375
 20
453.6552734375
 30
0.0
 10
-226.6455078125
 20
456.18701171875
 30
0.0
 10
-226.6455078125
 20
459.3095703125
 30
0.0
  0
SPLINE
  5
4F
330
1F
100
AcDbEntity
  8
bottomB
 62
     5
420
      255
370
    35
100
AcDbSpline
210
0.0
220
0.0
230
1.0
 70
    11
 71
     3
 72
    17
 73
    13
 74
     0
 42
0.0000000001
 43
0.0000000001
 40
0.0
 40
0.0
 40
0.0
 40
0.0
 40
1.0
 40
1.0
 40
1.0
 40
2.0
 40
2.0
 40
2.0
 40
3.0
 40
3.0
 40
3.0
 40
4.0
 40
4.0
 40
4.0
 40
4.0
 10
60.3740234375
 20
104.5380859375
 30
0.0
 10
60.3740234375
 20
139.92578125
 30
0.0
 10
31.68701171875
 20
168.61328125
 30
0.0
 10
-3.70068359375
 20
168.61328125
 30
0.0
 10
-39.08837890625
 20
168.61328125
 30
0.0
 10
-67.775390625
 20
139.92578125
 30
0.0
 10
-67.775390625
 20
104.5380859375
 30
0.0
 10
-67.775390625
 20
69.150390625
 30
0.0
 10
-39.08837890625
 20
40.462890625
 30
0.0
 10
-3.70068359375
 20
40.462890625
 30
0.0
 10
31.68701171875
 20
40.462890625
 30
0.0
 10
60.3740234375
 20
69.150390625
 30
0.0
 10
60.3740234375
 20
104.5380859375
 30
0.0
  0
SPLINE
  5
50
330
1F
100
AcDbEntity
  8
bottomB
 62
     5
420
      255
370
    35
100
AcDbSpline
210
0.0
220
0.0
230
1.0
 70
    11
 71
     3
 72
    44
 73
    40
 74
     0
 42
0.0000000001
 43
0.0000000001
 40
0.0
 40
0.0
 40
0.0
 40
0.0
 40
1.0
 40
1.0
 40
1.0
 40
2.0
 40
2.0
 40
2.0
 40
3.0
 40
3.0
 40
3.0
 40
4.0
 40
4.0
 40
4.0
 40
5.0
 40
5.0
 40
5.0
 40
6.0
 40
6.0
 40
6.0
 40
7.0
 40
7.0
 40
7.0
 40
8.0
 40
8.0
 40
8.0
 40
9.0
 40
9.0
 40
9.0
 40
10.0
 40
10.0
 40
10.0
 40
11.0
 40
11.0
 40
11.0
 40
12.0
 40
12.0
 40
12.0
 40
13.0
 40
13.0
 40
13.0
 40
13.0
 10
-255.70068359375
 20
91.3603515625
 30
0.0
 10
-255.70068359375
 20
101.8095703125
 30
0.0
 10
-255.70068359375
 20
112.259765625
 30
0.0
 10
-255.70068359375
 20
122.7099609375
 30
0.0
 10
-255.70068359375
 20
254.70947265625
 30
0.0
 10
-255.70068359375
 20
386.70947265625
 30
0.0
 10
-255.70068359375
 20
518.7099609375
 30
0.0
 10
-87.70068359375
 20
518.7099609375
 30
0.0
 10
80.298828125
 20
518.7099609375
 30
0.0
 10
248.298828125
 20
518.7099609375
 30
0.0
 10
248.298828125
 20
386.70947265625
 30
0.0
 10
248.298828125
 20
254.70947265625
 30
0.0
 10
248.298828125
 20
122.7099609375
 30
0.0
 10
248.298828125
 20
112.259765625
 30
0.0
 10
248.298828125
 20
101.8095703125
 30
0.0
 10
248.298828125
 20
91.3603515625
 30
0.0
 10
248.298828125
 20
89.703125
 30
0.0
 10
247.921875
 20
88.294921875
 30
0.0
 10
247.09375
 20
86.8603515625
 30
0.0
 10
206.361328125
 20
16.3095703125
 30
0.0
 10
165.62890625
 20
-54.240234375
 30
0.0
 10
124.8974609375
 20
-124.7900390625
 30
0.0
 10
123.2900390625
 20
-127.57421875
 30
0.0
 10
120.318359375
 20
-129.2900390625
 30
0.0
 10
117.1025390625
 20
-129.2900390625
 30
0.0
 10
76.8349609375
 20
-129.2900390625
 30
0.0
 10
36.5673828125
 20
-129.2900390625
 30
0.0
 10
-3.70068359375
 20
-129.2900390625
 30
0.0
 10
-43.96875
 20
-129.2900390625
 30
0.0
 10
-84.236328125
 20
-129.2900390625
 30
0.0
 10
-124.50439453125
 20
-129.2900390625
 30
0.0
 10
-127.7197265625
 20
-129.2900390625
 30
0.0
 10
-130.69091796875
 20
-127.57421875
 30
0.0
 10
-132.298828125
 20
-124.7900390625
 30
0.0
 10
-173.03076171875
 20
-54.240234375
 30
0.0
 10
-213.7626953125
 20
16.3095703125
 30
0.0
 10
-254.4951171875
 20
86.8603515625
 30
0.0
 10
-255.3232421875
 20
88.294921875
 30
0.0
 10
-255.70068359375
 20
89.703125
 30
0.0
 10
-255.70068359375
 20
91.3603515625
 30
0.0
  0
SPLINE
  5
51
330
1F
100
AcDbEntity
  8
bottomB
 62
     5
420
      255
370
    35
100
AcDbSpline
210
0.0
220
0.0
230
1.0
 70
    11
 71
     3
 72
    17
 73
    13
 74
     0
 42
0.0000000001
 43
0.0000000001
 40
0.0
 40
0.0
 40
0.0
 40
0.0
 40
1.0
 40
1.0
 40
1.0
 40
2.0
 40
2.0
 40
2.0
 40
3.0
 40
3.0
 40
3.0
 40
4.0
 40
4.0
 40
4.0
 40
4.0
 10
224.07421875
 20
459.3095703125
 30
0.0
 10
224.07421875
 20
462.43310546875
 30
0.0
 10
221.54296875
 20
464.96484375
 30
0.0
 10
218.4189453125
 20
464.96484375
 30
0.0
 10
215.2958984375
 20
464.96484375
 30
0.0
 10
212.7646484375
 20
462.43310546875
 30
0.0
 10
212.7646484375
 20
459.3095703125
 30
0.0
 10
212.7646484375
 20
456.18701171875
 30
0.0
 10
215.2958984375
 20
453.6552734375
 30
0.0
 10
218.4189453125
 20
453.6552734375
 30
0.0
 10
221.54296875
 20
453.6552734375
 30
0.0
 10
224.07421875
 20
456.18701171875
 30
0.0
 10
224.07421875
 20
459.3095703125
 30
0.0
  0
SPLINE
  5
53
330
1F
100
AcDbEntity
  8
midA
 62
    96
420
    32512
370
    35
100
AcDbSpline
210
0.0
220
0.0
230
1.0
 70
    11
 71
     3
 72
    17
 73
    13
 74
     0
 42
0.0000000001
 43
0.0000000001
 40
0.0
 40
0.0
 40
0.0
 40
0.0
 40
1.0
 40
1.0
 40
1.0
 40
2.0
 40
2.0
 40
2.0
 40
3.0
 40
3.0
 40
3.0
 40
4.0
 40
4.0
 40
4.0
 40
4.0
 10
-789.31689453125
 20
-248.08984375
 30
0.0
 10
-789.31689453125
 20
-243.119140625
 30
0.0
 10
-793.34619140625
 20
-239.08984375
 30
0.0
 10
-798.31689453125
 20
-239.08984375
 30
0.0
 10
-803.287109375
 20
-239.08984375
 30
0.0
 10
-807.31689453125
 20
-243.119140625
 30
0.0
 10
-807.31689453125
 20
-248.08984375
 30
0.0
 10
-807.31689453125
 20
-253.060546875
 30
0.0
 10
-803.287109375
 20
-257.08984375
 30
0.0
 10
-798.31689453125
 20
-257.08984375
 30
0.0
 10
-793.34619140625
 20
-257.08984375
 30
0.0
 10
-789.31689453125
 20
-253.060546875
 30
0.0
 10
-789.31689453125
 20
-248.08984375
 30
0.0
  0
SPLINE
  5
54
330
1F
100
AcDbEntity
  8
midA
 62
    96
420
    32512
370
    35
100
AcDbSpline
210
0.0
220
0.0
230
1.0
 70
    11
 71
     3
 72
    17
 73
    13
 74
     0
 42
0.0000000001
 43
0.0000000001
 40
0.0
 40
0.0
 40
0.0
 40
0.0
 40
1.0
 40
1.0
 40
1.0
 40
2.0
 40
2.0
 40
2.0
 40
3.0
 40
3.0
 40
3.0
 40
4.0
 40
4.0
 40
4.0
 40
4.0
 10
-782.8369140625
 20
-377.6904296875
 30
0.0
 10
-782.8369140625
 20
-372.7197265625
 30
0.0
 10
-786.8662109375
 20
-368.6904296875
 30
0.0
 10
-791.8369140625
 20
-368.6904296875
 30
0.0
 10
-796.80712890625
 20
-368.6904296875
 30
0.0
 10
-800.8369140625
 20
-372.7197265625
 30
0.0
 10
-800.8369140625
 20
-377.6904296875
 30
0.0
 10
-800.8369140625
 20
-382.66015625
 30
0.0
 10
-796.80712890625
 20
-386.6904296875
 30
0.0
 10
-791.8369140625
 20
-386.6904296875
 30
0.0
 10
-786.8662109375
 20
-386.6904296875
 30
0.0
 10
-782.8369140625
 20
-382.66015625
 30
0.0
 10
-782.8369140625
 20
-377.6904296875
 30
0.0
  0
SPLINE
  5
55
330
1F
100
AcDbEntity
  8
midA
 62
    96
420
    32512
370
    35
100
AcDbSpline
210
0.0
220
0.0
230
1.0
 70
    11
 71
     3
 72
    17
 73
    13
 74
     0
 42
0.0000000001
 43
0.0000000001
 40
0.0
 40
0.0
 40
0.0
 40
0.0
 40
1.0
 40
1.0
 40
1.0
 40
2.0
 40
2.0
 40
2.0
 40
3.0
 40
3.0
 40
3.0
 40
4.0
 40
4.0
 40
4.0
 40
4.0
 10
-338.5966796875
 20
-248.08984375
 30
0.0
 10
-338.5966796875
 20
-243.119140625
 30
0.0
 10
-342.6259765625
 20
-239.08984375
 30
0.0
 10
-347.5966796875
 20
-239.08984375
 30
0.0
 10
-352.5673828125
 20
-239.08984375
 30
0.0
 10
-356.5966796875
 20
-243.119140625
 30
0.0
 10
-356.5966796875
 20
-248.08984375
 30
0.0
 10
-356.5966796875
 20
-253.060546875
 30
0.0
 10
-352.5673828125
 20
-257.08984375
 30
0.0
 10
-347.5966796875
 20
-257.08984375
 30
0.0
 10
-342.6259765625
 20
-257.08984375
 30
0.0
 10
-338.5966796875
 20
-253.060546875
 30
0.0
 10
-338.5966796875
 20
-248.08984375
 30
0.0
  0
SPLINE
  5
56
330
1F
100
AcDbEntity
  8
midA
 62
    96
420
    32512
370
    35
100
AcDbSpline
210
0.0
220
0.0
230
1.0
 70
    11
 71
     3
 72
    17
 73
    13
 74
     0
 42
0.0000000001
 43
0.0000000001
 40
0.0
 40
0.0
 40
0.0
 40
0.0
 40
1.0
 40
1.0
 40
1.0
 40
2.0
 40
2.0
 40
2.0
 40
3.0
 40
3.0
 40
3.0
 40
4.0
 40
4.0
 40
4.0
 40
4.0
 10
-332.11669921875
 20
-377.6904296875
 30
0.0
 10
-332.11669921875
 20
-372.7197265625
 30
0.0
 10
-336.14599609375
 20
-368.6904296875
 30
0.0
 10
-341.11669921875
 20
-368.6904296875
 30
0.0
 10
-346.08740234375
 20
-368.6904296875
 30
0.0
 10
-350.11669921875
 20
-372.7197265625
 30
0.0
 10
-350.11669921875
 20
-377.6904296875
 30
0.0
 10
-350.11669921875
 20
-382.66015625
 30
0.0
 10
-346.08740234375
 20
-386.6904296875
 30
0.0
 10
-341.11669921875
 20
-386.6904296875
 30
0.0
 10
-336.14599609375
 20
-386.6904296875
 30
0.0
 10
-332.11669921875
 20
-382.66015625
 30
0.0
 10
-332.11669921875
 20
-377.6904296875
 30
0.0
  0
SPLINE
  5
57
330
1F
100
AcDbEntity
  8
midA
 62
    96
420
    32512
370
    35
100
AcDbSpline
210
0.0
220
0.0
230
1.0
 70
    11
 71
     3
 72
    17
 73
    13
 74
     0
 42
0.0000000001
 43
0.0000000001
 40
0.0
 40
0.0
 40
0.0
 40
0.0
 40
1.0
 40
1.0
 40
1.0
 40
2.0
 40
2.0
 40
2.0
 40
3.0
 40
3.0
 40
3.0
 40
4.0
 40
4.0
 40
4.0
 40
4.0
 10
-404.39599609375
 20
-222.9560546875
 30
0.0
 10
-404.39599609375
 20
-230.783203125
 30
0.0
 10
-410.74169921875
 20
-237.12890625
 30
0.0
 10
-418.5693359375
 20
-237.12890625
 30
0.0
 10
-426.39697265625
 20
-237.12890625
 30
0.0
 10
-432.7421875
 20
-230.783203125
 30
0.0
 10
-432.7421875
 20
-222.9560546875
 30
0.0
 10
-432.7421875
 20
-215.1279296875
 30
0.0
 10
-426.39697265625
 20
-208.7822265625
 30
0.0
 10
-418.5693359375
 20
-208.7822265625
 30
0.0
 10
-410.74169921875
 20
-208.7822265625
 30
0.0
 10
-404.39599609375
 20
-215.1279296875
 30
0.0
 10
-404.39599609375
 20
-222.9560546875
 30
0.0
  0
SPLINE
  5
58
330
1F
100
AcDbEntity
  8
midA
 62
    96
420
    32512
370
    35
100
AcDbSpline
210
0.0
220
0.0
230
1.0
 70
    11
 71
     3
 72
    71
 73
    67
 74
     0
 42
0.0000000001
 43
0.0000000001
 40
0.0
 40
0.0
 40
0.0
 40
0.0
 40
1.0
 40
1.0
 40
1.0
 40
2.0
 40
2.0
 40
2.0
 40
3.0
 40
3.0
 40
3.0
 40
4.0
 40
4.0
 40
4.0
 40
5.0
 40
5.0
 40
5.0
 40
6.0
 40
6.0
 40
6.0
 40
7.0
 40
7.0
 40
7.0
 40
8.0
 40
8.0
 40
8.0
 40
9.0
 40
9.0
 40
9.0
 40
10.0
 40
10.0
 40
10.0
 40
11.0
 40
11.0
 40
11.0
 40
12.0
 40
12.0
 40
12.0
 40
13.0
 40
13.0
 40
13.0
 40
14.0
 40
14.0
 40
14.0
 40
15.0
 40
15.0
 40
15.0
 40
16.0
 40
16.0
 40
16.0
 40
17.0
 40
17.0
 40
17.0
 40
18.0
 40
18.0
 40
18.0
 40
19.0
 40
19.0
 40
19.0
 40
20.0
 40
20.0
 40
20.0
 40
21.0
 40
21.0
 40
21.0
 40
22.0
 40
22.0
 40
22.0
 40
22.0
 10
-541.3701171875
 20
-713.6298828125
 30
0.0
 10
-509.1650390625
 20
-690.2314453125
 30
0.0
 10
-476.9599609375
 20
-666.8330078125
 30
0.0
 10
-444.75439453125
 20
-643.4345703125
 30
0.0
 10
-460.6650390625
 20
-594.466796875
 30
0.0
 10
-476.5751953125
 20
-545.5
 30
0.0
 10
-492.48583984375
 20
-496.5322265625
 30
0.0
 10
-543.97314453125
 20
-496.5322265625
 30
0.0
 10
-595.46044921875
 20
-496.5322265625
 30
0.0
 10
-646.94775390625
 20
-496.5322265625
 30
0.0
 10
-662.85791015625
 20
-545.5
 30
0.0
 10
-678.7685546875
 20
-594.466796875
 30
0.0
 10
-694.6787109375
 20
-643.4345703125
 30
0.0
 10
-662.4736328125
 20
-666.8330078125
 30
0.0
 10
-630.2685546875
 20
-690.2314453125
 30
0.0
 10
-598.0634765625
 20
-713.6298828125
 30
0.0
 10
-598.0634765625
 20
-751.6494140625
 30
0.0
 10
-598.0634765625
 20
-789.669921875
 30
0.0
 10
-598.0634765625
 20
-827.689453125
 30
0.0
 10
-598.0634765625
 20
-832.66015625
 30
0.0
 10
-602.0927734375
 20
-836.689453125
 30
0.0
 10
-607.0634765625
 20
-836.689453125
 30
0.0
 10
-634.88232421875
 20
-836.689453125
 30
0.0
 10
-662.701171875
 20
-836.689453125
 30
0.0
 10
-690.5205078125
 20
-836.689453125
 30
0.0
 10
-693.73583984375
 20
-836.689453125
 30
0.0
 10
-696.70703125
 20
-834.974609375
 30
0.0
 10
-698.31494140625
 20
-832.189453125
 30
0.0
 10
-739.046875
 20
-761.6396484375
 30
0.0
 10
-779.77880859375
 20
-691.08984375
 30
0.0
 10
-820.5107421875
 20
-620.5400390625
 30
0.0
 10
-821.33935546875
 20
-619.10546875
 30
0.0
 10
-821.716796875
 20
-617.697265625
 30
0.0
 10
-821.716796875
 20
-616.0400390625
 30
0.0
 10
-821.716796875
 20
-605.58984375
 30
0.0
 10
-821.716796875
 20
-595.1396484375
 30
0.0
 10
-821.716796875
 20
-584.6904296875
 30
0.0
 10
-821.716796875
 20
-452.6904296875
 30
0.0
 10
-821.716796875
 20
-320.6904296875
 30
0.0
 10
-821.716796875
 20
-188.6904296875
 30
0.0
 10
-653.716796875
 20
-188.6904296875
 30
0.0
 10
-485.716796875
 20
-188.6904296875
 30
0.0
 10
-317.716796875
 20
-188.6904296875
 30
0.0
 10
-317.716796875
 20
-320.6904296875
 30
0.0
 10
-317.716796875
 20
-452.6904296875
 30
0.0
 10
-317.716796875
 20
-584.6904296875
 30
0.0
 10
-317.716796875
 20
-595.1396484375
 30
0.0
 10
-317.716796875
 20
-605.58984375
 30
0.0
 10
-317.716796875
 20
-616.0400390625
 30
0.0
 10
-317.716796875
 20
-617.697265625
 30
0.0
 10
-318.09423828125
 20
-619.10546875
 30
0.0
 10
-318.92236328125
 20
-620.5400390625
 30
0.0
 10
-359.654296875
 20
-691.08984375
 30
0.0
 10
-400.38671875
 20
-761.6396484375
 30
0.0
 10
-441.11865234375
 20
-832.189453125
 30
0.0
 10
-442.7265625
 20
-834.974609375
 30
0.0
 10
-445.697265625
 20
-836.689453125
 30
0.0
 10
-448.9130859375
 20
-836.689453125
 30
0.0
 10
-476.73193359375
 20
-836.689453125
 30
0.0
 10
-504.55126953125
 20
-836.689453125
 30
0.0
 10
-532.3701171875
 20
-836.689453125
 30
0.0
 10
-537.3408203125
 20
-836.689453125
 30
0.0
 10
-541.3701171875
 20
-832.66015625
 30
0.0
 10
-541.3701171875
 20
-827.689453125
 30
0.0
 10
-541.3701171875
 20
-789.669921875
 30
0.0
 10
-541.3701171875
 20
-751.6494140625
 30
0.0
 10
-541.3701171875
 20
-713.6298828125
 30
0.0
  0
SPLINE
  5
5A
330
1F
100
AcDbEntity
  8
midB
 62
    25
420
 10053171
370
    35
100
AcDbSpline
210
0.0
220
0.0
230
1.0
 70
    11
 71
     3
 72
    17
 73
    13
 74
     0
 42
0.0000000001
 43
0.0000000001
 40
0.0
 40
0.0
 40
0.0
 40
0.0
 40
1.0
 40
1.0
 40
1.0
 40
2.0
 40
2.0
 40
2.0
 40
3.0
 40
3.0
 40
3.0
 40
4.0
 40
4.0
 40
4.0
 40
4.0
 10
137.2314453125
 20
-222.9560546875
 30
0.0
 10
137.2314453125
 20
-230.783203125
 30
0.0
 10
130.8857421875
 20
-237.12890625
 30
0.0
 10
123.0576171875
 20
-237.12890625
 30
0.0
 10
115.23046875
 20
-237.12890625
 30
0.0
 10
108.884765625
 20
-230.783203125
 30
0.0
 10
108.884765625
 20
-222.9560546875
 30
0.0
 10
108.884765625
 20
-215.1279296875
 30
0.0
 10
115.23046875
 20
-208.7822265625
 30
0.0
 10
123.0576171875
 20
-208.7822265625
 30
0.0
 10
130.8857421875
 20
-208.7822265625
 30
0.0
 10
137.2314453125
 20
-215.1279296875
 30
0.0
 10
137.2314453125
 20
-222.9560546875
 30
0.0
  0
SPLINE
  5
5B
330
1F
100
AcDbEntity
  8
midB
 62
    25
420
 10053171
370
    35
100
AcDbSpline
210
0.0
220
0.0
230
1.0
 70
    11
 71
     3
 72
    17
 73
    13
 74
     0
 42
0.0000000001
 43
0.0000000001
 40
0.0
 40
0.0
 40
0.0
 40
0.0
 40
1.0
 40
1.0
 40
1.0
 40
2.0
 40
2.0
 40
2.0
 40
3.0
 40
3.0
 40
3.0
 40
4.0
 40
4.0
 40
4.0
 40
4.0
 10
-251.03466796875
 20
-248.08984375
 30
0.0
 10
-251.03466796875
 20
-244.966796875
 30
0.0
 10
-253.56640625
 20
-242.4345703125
 30
0.0
 10
-256.689453125
 20
-242.4345703125
 30
0.0
 10
-259.81298828125
 20
-242.4345703125
 30
0.0
 10
-262.3447265625
 20
-244.966796875
 30
0.0
 10
-262.3447265625
 20
-248.08984375
 30
0.0
 10
-262.3447265625
 20
-251.212890625
 30
0.0
 10
-259.81298828125
 20
-253.7451171875
 30
0.0
 10
-256.689453125
 20
-253.7451171875
 30
0.0
 10
-253.56640625
 20
-253.7451171875
 30
0.0
 10
-251.03466796875
 20
-251.212890625
 30
0.0
 10
-251.03466796875
 20
-248.08984375
 30
0.0
  0
SPLINE
  5
5C
330
1F
100
AcDbEntity
  8
midB
 62
    25
420
 10053171
370
    35
100
AcDbSpline
210
0.0
220
0.0
230
1.0
 70
    11
 71
     3
 72
    17
 73
    13
 74
     0
 42
0.0000000001
 43
0.0000000001
 40
0.0
 40
0.0
 40
0.0
 40
0.0
 40
1.0
 40
1.0
 40
1.0
 40
2.0
 40
2.0
 40
2.0
 40
3.0
 40
3.0
 40
3.0
 40
4.0
 40
4.0
 40
4.0
 40
4.0
 10
-244.5546875
 20
-377.6904296875
 30
0.0
 10
-244.5546875
 20
-374.56640625
 30
0.0
 10
-247.08642578125
 20
-372.03515625
 30
0.0
 10
-250.2099609375
 20
-372.03515625
 30
0.0
 10
-253.3330078125
 20
-372.03515625
 30
0.0
 10
-255.86474609375
 20
-374.56640625
 30
0.0
 10
-255.86474609375
 20
-377.6904296875
 30
0.0
 10
-255.86474609375
 20
-380.8134765625
 30
0.0
 10
-253.3330078125
 20
-383.3447265625
 30
0.0
 10
-250.2099609375
 20
-383.3447265625
 30
0.0
 10
-247.08642578125
 20
-383.3447265625
 30
0.0
 10
-244.5546875
 20
-380.8134765625
 30
0.0
 10
-244.5546875
 20
-377.6904296875
 30
0.0
  0
SPLINE
  5
5D
330
1F
100
AcDbEntity
  8
midB
 62
    25
420
 10053171
370
    35
100
AcDbSpline
210
0.0
220
0.0
230
1.0
 70
    11
 71
     3
 72
    17
 73
    13
 74
     0
 42
0.0000000001
 43
0.0000000001
 40
0.0
 40
0.0
 40
0.0
 40
0.0
 40
1.0
 40
1.0
 40
1.0
 40
2.0
 40
2.0
 40
2.0
 40
3.0
 40
3.0
 40
3.0
 40
4.0
 40
4.0
 40
4.0
 40
4.0
 10
199.685546875
 20
-248.08984375
 30
0.0
 10
199.685546875
 20
-244.966796875
 30
0.0
 10
197.1533203125
 20
-242.4345703125
 30
0.0
 10
194.0302734375
 20
-242.4345703125
 30
0.0
 10
190.9072265625
 20
-242.4345703125
 30
0.0
 10
188.375
 20
-244.966796875
 30
0.0
 10
188.375
 20
-248.08984375
 30
0.0
 10
188.375
 20
-251.212890625
 30
0.0
 10
190.9072265625
 20
-253.7451171875
 30
0.0
 10
194.0302734375
 20
-253.7451171875
 30
0.0
 10
197.1533203125
 20
-253.7451171875
 30
0.0
 10
199.685546875
 20
-251.212890625
 30
0.0
 10
199.685546875
 20
-248.08984375
 30
0.0
  0
SPLINE
  5
5E
330
1F
100
AcDbEntity
  8
midB
 62
    25
420
 10053171
370
    35
100
AcDbSpline
210
0.0
220
0.0
230
1.0
 70
    11
 71
     3
 72
    17
 73
    13
 74
     0
 42
0.0000000001
 43
0.0000000001
 40
0.0
 40
0.0
 40
0.0
 40
0.0
 40
1.0
 40
1.0
 40
1.0
 40
2.0
 40
2.0
 40
2.0
 40
3.0
 40
3.0
 40
3.0
 40
4.0
 40
4.0
 40
4.0
 40
4.0
 10
206.1650390625
 20
-377.6904296875
 30
0.0
 10
206.1650390625
 20
-374.56640625
 30
0.0
 10
203.6337890625
 20
-372.03515625
 30
0.0
 10
200.5107421875
 20
-372.03515625
 30
0.0
 10
197.38671875
 20
-372.03515625
 30
0.0
 10
194.85546875
 20
-374.56640625
 30
0.0
 10
194.85546875
 20
-377.6904296875
 30
0.0
 10
194.85546875
 20
-380.8134765625
 30
0.0
 10
197.38671875
 20
-383.3447265625
 30
0.0
 10
200.5107421875
 20
-383.3447265625
 30
0.0
 10
203.6337890625
 20
-383.3447265625
 30
0.0
 10
206.1650390625
 20
-380.8134765625
 30
0.0
 10
206.1650390625
 20
-377.6904296875
 30
0.0
  0
SPLINE
  5
5F
330
1F
100
AcDbEntity
  8
midB
 62
    25
420
 10053171
370
    35
100
AcDbSpline
210
0.0
220
0.0
230
1.0
 70
    11
 71
     3
 72
    74
 73
    70
 74
     0
 42
0.0000000001
 43
0.0000000001
 40
0.0
 40
0.0
 40
0.0
 40
0.0
 40
1.0
 40
1.0
 40
1.0
 40
2.0
 40
2.0
 40
2.0
 40
3.0
 40
3.0
 40
3.0
 40
4.0
 40
4.0
 40
4.0
 40
5.0
 40
5.0
 40
5.0
 40
6.0
 40
6.0
 40
6.0
 40
7.0
 40
7.0
 40
7.0
 40
8.0
 40
8.0
 40
8.0
 40
9.0
 40
9.0
 40
9.0
 40
10.0
 40
10.0
 40
10.0
 40
11.0
 40
11.0
 40
11.0
 40
12.0
 40
12.0
 40
12.0
 40
13.0
 40
13.0
 40
13.0
 40
14.0
 40
14.0
 40
14.0
 40
15.0
 40
15.0
 40
15.0
 40
16.0
 40
16.0
 40
16.0
 40
17.0
 40
17.0
 40
17.0
 40
18.0
 40
18.0
 40
18.0
 40
19.0
 40
19.0
 40
19.0
 40
20.0
 40
20.0
 40
20.0
 40
21.0
 40
21.0
 40
21.0
 40
22.0
 40
22.0
 40
22.0
 40
23.0
 40
23.0
 40
23.0
 40
23.0
 10
222.705078125
 20
-620.5400390625
 30
0.0
 10
181.97265625
 20
-691.08984375
 30
0.0
 10
141.240234375
 20
-761.6396484375
 30
0.0
 10
100.5078125
 20
-832.189453125
 30
0.0
 10
98.900390625
 20
-834.974609375
 30
0.0
 10
95.9296875
 20
-836.689453125
 30
0.0
 10
92.7138671875
 20
-836.689453125
 30
0.0
 10
64.89453125
 20
-836.689453125
 30
0.0
 10
37.07568359375
 20
-836.689453125
 30
0.0
 10
9.2568359375
 20
-836.689453125
 30
0.0
 10
4.2861328125
 20
-836.689453125
 30
0.0
 10
0.2568359375
 20
-832.66015625
 30
0.0
 10
0.2568359375
 20
-827.689453125
 30
0.0
 10
0.2568359375
 20
-789.0986328125
 30
0.0
 10
0.2568359375
 20
-750.5068359375
 30
0.0
 10
0.2568359375
 20
-711.9150390625
 30
0.0
 10
0.2568359375
 20
-708.068359375
 30
0.0
 10
2.7021484375
 20
-704.646484375
 30
0.0
 10
6.341796875
 20
-703.400390625
 30
0.0
 10
55.51171875
 20
-686.56640625
 30
0.0
 10
85.2998046875
 20
-636.646484375
 30
0.0
 10
76.767578125
 20
-585.37890625
 30
0.0
 10
68.234375
 20
-534.1123046875
 30
0.0
 10
23.88232421875
 20
-496.5322265625
 30
0.0
 10
-28.08984375
 20
-496.5322265625
 30
0.0
 10
-80.0615234375
 20
-496.5322265625
 30
0.0
 10
-124.41357421875
 20
-534.1123046875
 30
0.0
 10
-132.9462890625
 20
-585.37890625
 30
0.0
 10
-141.4794921875
 20
-636.646484375
 30
0.0
 10
-111.69140625
 20
-686.56640625
 30
0.0
 10
-62.52099609375
 20
-703.400390625
 30
0.0
 10
-58.88134765625
 20
-704.646484375
 30
0.0
 10
-56.43603515625
 20
-708.068359375
 30
0.0
 10
-56.43603515625
 20
-711.9150390625
 30
0.0
 10
-56.43603515625
 20
-750.5068359375
 30
0.0
 10
-56.43603515625
 20
-789.0986328125
 30
0.0
 10
-56.43603515625
 20
-827.689453125
 30
0.0
 10
-56.43603515625
 20
-832.66015625
 30
0.0
 10
-60.4658203125
 20
-836.689453125
 30
0.0
 10
-65.43603515625
 20
-836.689453125
 30
0.0
 10
-93.25537109375
 20
-836.689453125
 30
0.0
 10
-121.07421875
 20
-836.689453125
 30
0.0
 10
-148.8935546875
 20
-836.689453125
 30
0.0
 10
-152.10888671875
 20
-836.689453125
 30
0.0
 10
-155.080078125
 20
-834.974609375
 30
0.0
 10
-156.6875
 20
-832.189453125
 30
0.0
 10
-197.419921875
 20
-761.6396484375
 30
0.0
 10
-238.15185546875
 20
-691.08984375
 30
0.0
 10
-278.8837890625
 20
-620.5400390625
 30
0.0
 10
-279.71240234375
 20
-619.10546875
 30
0.0
 10
-280.08984375
 20
-617.697265625
 30
0.0
 10
-280.08984375
 20
-616.0400390625
 30
0.0
 10
-280.08984375
 20
-605.58984375
 30
0.0
 10
-280.08984375
 20
-595.1396484375
 30
0.0
 10
-280.08984375
 20
-584.6904296875
 30
0.0
 10
-280.08984375
 20
-452.6904296875
 30
0.0
 10
-280.08984375
 20
-320.6904296875
 30
0.0
 10
-280.08984375
 20
-188.6904296875
 30
0.0
 10
-112.08984375
 20
-188.6904296875
 30
0.0
 10
55.91015625
 20
-188.6904296875
 30
0.0
 10
223.91015625
 20
-188.6904296875
 30
0.0
 10
223.91015625
 20
-320.6904296875
 30
0.0
 10
223.91015625
 20
-452.6904296875
 30
0.0
 10
223.91015625
 20
-584.6904296875
 30
0.0
 10
223.91015625
 20
-595.1396484375
 30
0.0
 10
223.91015625
 20
-605.58984375
 30
0.0
 10
223.91015625
 20
-616.0400390625
 30
0.0
 10
223.91015625
 20
-617.697265625
 30
0.0
 10
223.533203125
 20
-619.10546875
 30
0.0
 10
222.705078125
 20
-620.5400390625
 30
0.0
  0
SPLINE
  5
61
330
1F
100
AcDbEntity
  8
topA
 62
     4
420
    65535
370
    35
100
AcDbSpline
210
0.0
220
0.0
230
1.0
 70
    11
 71
     3
 72
    17
 73
    13
 74
     0
 42
0.0000000001
 43
0.0000000001
 40
0.0
 40
0.0
 40
0.0
 40
0.0
 40
1.0
 40
1.0
 40
1.0
 40
2.0
 40
2.0
 40
2.0
 40
3.0
 40
3.0
 40
3.0
 40
4.0
 40
4.0
 40
4.0
 40
4.0
 10
449.388671875
 20
493.3515625
 30
0.0
 10
449.388671875
 20
496.091796875
 30
0.0
 10
447.16796875
 20
498.3125
 30
0.0
 10
444.427734375
 20
498.3125
 30
0.0
 10
441.6884765625
 20
498.3125
 30
0.0
 10
439.466796875
 20
496.091796875
 30
0.0
 10
439.466796875
 20
493.3515625
 30
0.0
 10
439.466796875
 20
490.6123046875
 30
0.0
 10
441.6884765625
 20
488.3916015625
 30
0.0
 10
444.427734375
 20
488.3916015625
 30
0.0
 10
447.16796875
 20
488.3916015625
 30
0.0
 10
449.388671875
 20
490.6123046875
 30
0.0
 10
449.388671875
 20
493.3515625
 30
0.0
  0
SPLINE
  5
62
330
1F
100
AcDbEntity
  8
topA
 62
     4
420
    65535
370
    35
100
AcDbSpline
210
0.0
220
0.0
230
1.0
 70
    11
 71
     3
 72
    17
 73
    13
 74
     0
 42
0.0000000001
 43
0.0000000001
 40
0.0
 40
0.0
 40
0.0
 40
0.0
 40
1.0
 40
1.0
 40
1.0
 40
2.0
 40
2.0
 40
2.0
 40
3.0
 40
3.0
 40
3.0
 40
4.0
 40
4.0
 40
4.0
 40
4.0
 10
698.837890625
 20
493.3515625
 30
0.0
 10
698.837890625
 20
496.091796875
 30
0.0
 10
696.6171875
 20
498.3125
 30
0.0
 10
693.876953125
 20
498.3125
 30
0.0
 10
691.13671875
 20
498.3125
 30
0.0
 10
688.916015625
 20
496.091796875
 30
0.0
 10
688.916015625
 20
493.3515625
 30
0.0
 10
688.916015625
 20
490.6123046875
 30
0.0
 10
691.13671875
 20
488.3916015625
 30
0.0
 10
693.876953125
 20
488.3916015625
 30
0.0
 10
696.6171875
 20
488.3916015625
 30
0.0
 10
698.837890625
 20
490.6123046875
 30
0.0
 10
698.837890625
 20
493.3515625
 30
0.0
  0
SPLINE
  5
63
330
1F
100
AcDbEntity
  8
topA
 62
     4
420
    65535
370
    35
100
AcDbSpline
210
0.0
220
0.0
230
1.0
 70
    11
 71
     3
 72
    50
 73
    46
 74
     0
 42
0.0000000001
 43
0.0000000001
 40
0.0
 40
0.0
 40
0.0
 40
0.0
 40
1.0
 40
1.0
 40
1.0
 40
2.0
 40
2.0
 40
2.0
 40
3.0
 40
3.0
 40
3.0
 40
4.0
 40
4.0
 40
4.0
 40
5.0
 40
5.0
 40
5.0
 40
6.0
 40
6.0
 40
6.0
 40
7.0
 40
7.0
 40
7.0
 40
8.0
 40
8.0
 40
8.0
 40
9.0
 40
9.0
 40
9.0
 40
10.0
 40
10.0
 40
10.0
 40
11.0
 40
11.0
 40
11.0
 40
12.0
 40
12.0
 40
12.0
 40
13.0
 40
13.0
 40
13.0
 40
14.0
 40
14.0
 40
14.0
 40
15.0
 40
15.0
 40
15.0
 40
15.0
 10
408.1142578125
 20
359.1142578125
 30
0.0
 10
399.2353515625
 20
306.32080078125
 30
0.0
 10
416.716796875
 20
252.5185546875
 30
0.0
 10
454.931640625
 20
215.0263671875
 30
0.0
 10
457.9970703125
 20
205.58984375
 30
0.0
 10
461.0634765625
 20
196.154296875
 30
0.0
 10
464.12890625
 20
186.7177734375
 30
0.0
 10
474.05078125
 20
186.7177734375
 30
0.0
 10
483.97265625
 20
186.7177734375
 30
0.0
 10
493.8935546875
 20
186.7177734375
 30
0.0
 10
541.3603515625
 20
161.9599609375
 30
0.0
 10
597.9306640625
 20
161.9599609375
 30
0.0
 10
645.3974609375
 20
186.7177734375
 30
0.0
 10
655.318359375
 20
186.7177734375
 30
0.0
 10
665.240234375
 20
186.7177734375
 30
0.0
 10
675.162109375
 20
186.7177734375
 30
0.0
 10
678.228515625
 20
196.154296875
 30
0.0
 10
681.2939453125
 20
205.58984375
 30
0.0
 10
684.3603515625
 20
215.0263671875
 30
0.0
 10
722.5751953125
 20
252.5185546875
 30
0.0
 10
740.0556640625
 20
306.32080078125
 30
0.0
 10
731.1767578125
 20
359.1142578125
 30
0.0
 10
734.2431640625
 20
368.55029296875
 30
0.0
 10
737.3095703125
 20
377.98681640625
 30
0.0
 10
740.375
 20
387.42236328125
 30
0.0
 10
732.3486328125
 20
393.25439453125
 30
0.0
 10
724.322265625
 20
399.0859375
 30
0.0
 10
716.294921875
 20
404.91796875
 30
0.0
 10
692.4462890625
 20
452.8486328125
 30
0.0
 10
646.6796875
 20
486.099609375
 30
0.0
 10
593.7265625
 20
493.9697265625
 30
0.0
 10
585.69921875
 20
499.80126953125
 30
0.0
 10
577.6728515625
 20
505.63330078125
 30
0.0
 10
569.6455078125
 20
511.46484375
 30
0.0
 10
561.619140625
 20
505.63330078125
 30
0.0
 10
553.591796875
 20
499.80126953125
 30
0.0
 10
545.5654296875
 20
493.9697265625
 30
0.0
 10
492.611328125
 20
486.099609375
 30
0.0
 10
446.8447265625
 20
452.8486328125
 30
0.0
 10
422.99609375
 20
404.91796875
 30
0.0
 10
414.9697265625
 20
399.0859375
 30
0.0
 10
406.943359375
 20
393.25439453125
 30
0.0
 10
398.916015625
 20
387.42236328125
 30
0.0
 10
401.982421875
 20
377.98681640625
 30
0.0
 10
405.0478515625
 20
368.55029296875
 30
0.0
 10
408.1142578125
 20
359.1142578125
 30
0.0
  0
SPLINE
  5
64
330
1F
100
AcDbEntity
  8
topA
 62
     4
420
    65535
370
    35
100
AcDbSpline
210
0.0
220
0.0
230
1.0
 70
    11
 71
     3
 72
    17
 73
    13
 74
     0
 42
0.0000000001
 43
0.0000000001
 40
0.0
 40
0.0
 40
0.0
 40
0.0
 40
1.0
 40
1.0
 40
1.0
 40
2.0
 40
2.0
 40
2.0
 40
3.0
 40
3.0
 40
3.0
 40
4.0
 40
4.0
 40
4.0
 40
4.0
 10
350.0458984375
 20
459.3095703125
 30
0.0
 10
350.0458984375
 20
464.2802734375
 30
0.0
 10
346.015625
 20
468.3095703125
 30
0.0
 10
341.0458984375
 20
468.3095703125
 30
0.0
 10
336.0751953125
 20
468.3095703125
 30
0.0
 10
332.0458984375
 20
464.2802734375
 30
0.0
 10
332.0458984375
 20
459.3095703125
 30
0.0
 10
332.0458984375
 20
454.33984375
 30
0.0
 10
336.0751953125
 20
450.3095703125
 30
0.0
 10
341.0458984375
 20
450.3095703125
 30
0.0
 10
346.015625
 20
450.3095703125
 30
0.0
 10
350.0458984375
 20
454.33984375
 30
0.0
 10
350.0458984375
 20
459.3095703125
 30
0.0
  0
SPLINE
  5
65
330
1F
100
AcDbEntity
  8
topA
 62
     4
420
    65535
370
    35
100
AcDbSpline
210
0.0
220
0.0
230
1.0
 70
    11
 71
     3
 72
    17
 73
    13
 74
     0
 42
0.0000000001
 43
0.0000000001
 40
0.0
 40
0.0
 40
0.0
 40
0.0
 40
1.0
 40
1.0
 40
1.0
 40
2.0
 40
2.0
 40
2.0
 40
3.0
 40
3.0
 40
3.0
 40
4.0
 40
4.0
 40
4.0
 40
4.0
 10
356.525390625
 20
329.70947265625
 30
0.0
 10
356.525390625
 20
334.68017578125
 30
0.0
 10
352.49609375
 20
338.70947265625
 30
0.0
 10
347.525390625
 20
338.70947265625
 30
0.0
 10
342.5556640625
 20
338.70947265625
 30
0.0
 10
338.525390625
 20
334.68017578125
 30
0.0
 10
338.525390625
 20
329.70947265625
 30
0.0
 10
338.525390625
 20
324.7392578125
 30
0.0
 10
342.5556640625
 20
320.70947265625
 30
0.0
 10
347.525390625
 20
320.70947265625
 30
0.0
 10
352.49609375
 20
320.70947265625
 30
0.0
 10
356.525390625
 20
324.7392578125
 30
0.0
 10
356.525390625
 20
329.70947265625
 30
0.0
  0
SPLINE
  5
66
330
1F
100
AcDbEntity
  8
topA
 62
     4
420
    65535
370
    35
100
AcDbSpline
210
0.0
220
0.0
230
1.0
 70
    11
 71
     3
 72
    17
 73
    13
 74
     0
 42
0.0000000001
 43
0.0000000001
 40
0.0
 40
0.0
 40
0.0
 40
0.0
 40
1.0
 40
1.0
 40
1.0
 40
2.0
 40
2.0
 40
2.0
 40
3.0
 40
3.0
 40
3.0
 40
4.0
 40
4.0
 40
4.0
 40
4.0
 10
800.765625
 20
459.3095703125
 30
0.0
 10
800.765625
 20
464.2802734375
 30
0.0
 10
796.736328125
 20
468.3095703125
 30
0.0
 10
791.765625
 20
468.3095703125
 30
0.0
 10
786.794921875
 20
468.3095703125
 30
0.0
 10
782.765625
 20
464.2802734375
 30
0.0
 10
782.765625
 20
459.3095703125
 30
0.0
 10
782.765625
 20
454.33984375
 30
0.0
 10
786.794921875
 20
450.3095703125
 30
0.0
 10
791.765625
 20
450.3095703125
 30
0.0
 10
796.736328125
 20
450.3095703125
 30
0.0
 10
800.765625
 20
454.33984375
 30
0.0
 10
800.765625
 20
459.3095703125
 30
0.0
  0
SPLINE
  5
67
330
1F
100
AcDbEntity
  8
topA
 62
     4
420
    65535
370
    35
100
AcDbSpline
210
0.0
220
0.0
230
1.0
 70
    11
 71
     3
 72
    17
 73
    13
 74
     0
 42
0.0000000001
 43
0.0000000001
 40
0.0
 40
0.0
 40
0.0
 40
0.0
 40
1.0
 40
1.0
 40
1.0
 40
2.0
 40
2.0
 40
2.0
 40
3.0
 40
3.0
 40
3.0
 40
4.0
 40
4.0
 40
4.0
 40
4.0
 10
807.24609375
 20
329.70947265625
 30
0.0
 10
807.24609375
 20
334.68017578125
 30
0.0
 10
803.2158203125
 20
338.70947265625
 30
0.0
 10
798.24609375
 20
338.70947265625
 30
0.0
 10
793.275390625
 20
338.70947265625
 30
0.0
 10
789.24609375
 20
334.68017578125
 30
0.0
 10
789.24609375
 20
329.70947265625
 30
0.0
 10
789.24609375
 20
324.7392578125
 30
0.0
 10
793.275390625
 20
320.70947265625
 30
0.0
 10
798.24609375
 20
320.70947265625
 30
0.0
 10
803.2158203125
 20
320.70947265625
 30
0.0
 10
807.24609375
 20
324.7392578125
 30
0.0
 10
807.24609375
 20
329.70947265625
 30
0.0
  0
SPLINE
  5
68
330
1F
100
AcDbEntity
  8
topA
 62
     4
420
    65535
370
    35
100
AcDbSpline
210
0.0
220
0.0
230
1.0
 70
    11
 71
     3
 72
    17
 73
    13
 74
     0
 42
0.0000000001
 43
0.0000000001
 40
0.0
 40
0.0
 40
0.0
 40
0.0
 40
1.0
 40
1.0
 40
1.0
 40
2.0
 40
2.0
 40
2.0
 40
3.0
 40
3.0
 40
3.0
 40
4.0
 40
4.0
 40
4.0
 40
4.0
 10
758.3369140625
 20
463.53369140625
 30
0.0
 10
758.3369140625
 20
471.36181640625
 30
0.0
 10
751.9912109375
 20
477.70703125
 30
0.0
 10
744.1640625
 20
477.70703125
 30
0.0
 10
736.3359375
 20
477.70703125
 30
0.0
 10
729.990234375
 20
471.36181640625
 30
0.0
 10
729.990234375
 20
463.53369140625
 30
0.0
 10
729.990234375
 20
455.7060546875
 30
0.0
 10
736.3359375
 20
449.3603515625
 30
0.0
 10
744.1640625
 20
449.3603515625
 30
0.0
 10
751.9912109375
 20
449.3603515625
 30
0.0
 10
758.3369140625
 20
455.7060546875
 30
0.0
 10
758.3369140625
 20
463.53369140625
 30
0.0
  0
SPLINE
  5
69
330
1F
100
AcDbEntity
  8
topA
 62
     4
420
    65535
370
    35
100
AcDbSpline
210
0.0
220
0.0
230
1.0
 70
    11
 71
     3
 72
   146
 73
   142
 74
     0
 42
0.0000000001
 43
0.0000000001
 40
0.0
 40
0.0
 40
0.0
 40
0.0
 40
1.0
 40
1.0
 40
1.0
 40
2.0
 40
2.0
 40
2.0
 40
3.0
 40
3.0
 40
3.0
 40
4.0
 40
4.0
 40
4.0
 40
5.0
 40
5.0
 40
5.0
 40
6.0
 40
6.0
 40
6.0
 40
7.0
 40
7.0
 40
7.0
 40
8.0
 40
8.0
 40
8.0
 40
9.0
 40
9.0
 40
9.0
 40
10.0
 40
10.0
 40
10.0
 40
11.0
 40
11.0
 40
11.0
 40
12.0
 40
12.0
 40
12.0
 40
13.0
 40
13.0
 40
13.0
 40
14.0
 40
14.0
 40
14.0
 40
15.0
 40
15.0
 40
15.0
 40
16.0
 40
16.0
 40
16.0
 40
17.0
 40
17.0
 40
17.0
 40
18.0
 40
18.0
 40
18.0
 40
19.0
 40
19.0
 40
19.0
 40
20.0
 40
20.0
 40
20.0
 40
21.0
 40
21.0
 40
21.0
 40
22.0
 40
22.0
 40
22.0
 40
23.0
 40
23.0
 40
23.0
 40
24.0
 40
24.0
 40
24.0
 40
25.0
 40
25.0
 40
25.0
 40
26.0
 40
26.0
 40
26.0
 40
27.0
 40
27.0
 40
27.0
 40
28.0
 40
28.0
 40
28.0
 40
29.0
 40
29.0
 40
29.0
 40
30.0
 40
30.0
 40
30.0
 40
31.0
 40
31.0
 40
31.0
 40
32.0
 40
32.0
 40
32.0
 40
33.0
 40
33.0
 40
33.0
 40
34.0
 40
34.0
 40
34.0
 40
35.0
 40
35.0
 40
35.0
 40
36.0
 40
36.0
 40
36.0
 40
37.0
 40
37.0
 40
37.0
 40
38.0
 40
38.0
 40
38.0
 40
39.0
 40
39.0
 40
39.0
 40
40.0
 40
40.0
 40
40.0
 40
41.0
 40
41.0
 40
41.0
 40
42.0
 40
42.0
 40
42.0
 40
43.0
 40
43.0
 40
43.0
 40
44.0
 40
44.0
 40
44.0
 40
45.0
 40
45.0
 40
45.0
 40
46.0
 40
46.0
 40
46.0
 40
47.0
 40
47.0
 40
47.0
 40
47.0
 10
820.439453125
 20
286.759765625
 30
0.0
 10
803.3134765625
 20
257.095703125
 30
0.0
 10
785.388671875
 20
227.99609375
 30
0.0
 10
766.2744140625
 20
199.5615234375
 30
0.0
 10
757.4970703125
 20
186.5048828125
 30
0.0
 10
748.48828125
 20
173.62109375
 30
0.0
 10
739.19140625
 20
160.9267578125
 30
0.0
 10
738.0673828125
 20
159.3916015625
 30
0.0
 10
736.939453125
 20
157.859375
 30
0.0
 10
735.806640625
 20
156.330078125
 30
0.0
 10
735.2431640625
 20
155.5703125
 30
0.0
 10
734.6787109375
 20
154.810546875
 30
0.0
 10
734.11328125
 20
154.0517578125
 30
0.0
 10
733.4814453125
 20
153.203125
 30
0.0
 10
732.9521484375
 20
152.2880859375
 30
0.0
 10
732.19140625
 20
151.525390625
 30
0.0
 10
728.64453125
 20
147.970703125
 30
0.0
 10
723.3232421875
 20
148.8818359375
 30
0.0
 10
719.31640625
 20
148.8818359375
 30
0.0
 10
710.2890625
 20
148.8818359375
 30
0.0
 10
701.26171875
 20
148.8818359375
 30
0.0
 10
692.234375
 20
148.8818359375
 30
0.0
 10
624.8173828125
 20
148.8818359375
 30
0.0
 10
557.400390625
 20
148.8818359375
 30
0.0
 10
489.984375
 20
148.8818359375
 30
0.0
 10
472.009765625
 20
148.8818359375
 30
0.0
 10
454.03515625
 20
148.8818359375
 30
0.0
 10
436.0615234375
 20
148.8818359375
 30
0.0
 10
431.568359375
 20
148.8818359375
 30
0.0
 10
427.07421875
 20
148.8818359375
 30
0.0
 10
422.5810546875
 20
148.8818359375
 30
0.0
 10
420.333984375
 20
148.8818359375
 30
0.0
 10
418.087890625
 20
148.8818359375
 30
0.0
 10
415.8408203125
 20
148.8818359375
 30
0.0
 10
413.572265625
 20
148.8818359375
 30
0.0
 10
411.4404296875
 20
148.779296875
 30
0.0
 10
409.27734375
 20
149.9189453125
 30
0.0
 10
407.208984375
 20
151.0087890625
 30
0.0
 10
406.126953125
 20
152.775390625
 30
0.0
 10
404.833984375
 20
154.513671875
 30
0.0
 10
403.7060546875
 20
156.029296875
 30
0.0
 10
402.5830078125
 20
157.5478515625
 30
0.0
 10
401.462890625
 20
159.0693359375
 30
0.0
 10
399.2001953125
 20
162.1455078125
 30
0.0
 10
396.953125
 20
165.2333984375
 30
0.0
 10
394.72265625
 20
168.333984375
 30
0.0
 10
375.6689453125
 20
194.8134765625
 30
0.0
 10
357.83203125
 20
222.0166015625
 30
0.0
 10
340.80078125
 20
249.82958984375
 30
0.0
 10
335.2431640625
 20
258.90625
 30
0.0
 10
329.779296875
 20
268.037109375
 30
0.0
 10
324.3994140625
 20
277.2197265625
 30
0.0
 10
323.02734375
 20
279.5625
 30
0.0
 10
321.66015625
 20
281.908203125
 30
0.0
 10
320.298828125
 20
284.2568359375
 30
0.0
 10
318.955078125
 20
286.5771484375
 30
0.0
 10
317.6455078125
 20
288.69189453125
 30
0.0
 10
317.6455078125
 20
291.59375
 30
0.0
 10
317.6455078125
 20
294.7392578125
 30
0.0
 10
317.6455078125
 20
297.88623046875
 30
0.0
 10
317.6455078125
 20
301.03271484375
 30
0.0
 10
317.6455078125
 20
314.9658203125
 30
0.0
 10
317.6455078125
 20
328.8994140625
 30
0.0
 10
317.6455078125
 20
342.8330078125
 30
0.0
 10
317.6455078125
 20
377.1689453125
 30
0.0
 10
317.6455078125
 20
411.50537109375
 30
0.0
 10
317.6455078125
 20
445.84228515625
 30
0.0
 10
317.6455078125
 20
461.7392578125
 30
0.0
 10
317.6455078125
 20
477.63671875
 30
0.0
 10
317.6455078125
 20
493.533203125
 30
0.0
 10
317.6455078125
 20
497.716796875
 30
0.0
 10
317.6455078125
 20
501.89990234375
 30
0.0
 10
317.6455078125
 20
506.08349609375
 30
0.0
 10
317.6455078125
 20
508.20703125
 30
0.0
 10
317.6455078125
 20
510.32958984375
 30
0.0
 10
317.6455078125
 20
512.453125
 30
0.0
 10
317.6455078125
 20
513.5224609375
 30
0.0
 10
317.6455078125
 20
514.591796875
 30
0.0
 10
317.6455078125
 20
515.6611328125
 30
0.0
 10
317.6455078125
 20
516.1982421875
 30
0.0
 10
317.6455078125
 20
516.734375
 30
0.0
 10
317.6455078125
 20
517.27099609375
 30
0.0
 10
317.6455078125
 20
517.5400390625
 30
0.0
 10
317.6455078125
 20
517.80859375
 30
0.0
 10
317.6455078125
 20
518.078125
 30
0.0
 10
317.6455078125
 20
518.3125
 30
0.0
 10
317.3994140625
 20
518.7099609375
 30
0.0
 10
317.8203125
 20
518.7099609375
 30
0.0
 10
326.4365234375
 20
518.7099609375
 30
0.0
 10
335.052734375
 20
518.7099609375
 30
0.0
 10
343.66796875
 20
518.7099609375
 30
0.0
 10
378.130859375
 20
518.7099609375
 30
0.0
 10
412.59375
 20
518.7099609375
 30
0.0
 10
447.056640625
 20
518.7099609375
 30
0.0
 10
514.4736328125
 20
518.7099609375
 30
0.0
 10
581.890625
 20
518.7099609375
 30
0.0
 10
649.3076171875
 20
518.7099609375
 30
0.0
 10
683.1337890625
 20
518.7099609375
 30
0.0
 10
716.9599609375
 20
518.7099609375
 30
0.0
 10
750.787109375
 20
518.7099609375
 30
0.0
 10
767.7001953125
 20
518.7099609375
 30
0.0
 10
784.61328125
 20
518.7099609375
 30
0.0
 10
801.52734375
 20
518.7099609375
 30
0.0
 10
805.755859375
 20
518.7099609375
 30
0.0
 10
809.9833984375
 20
518.7099609375
 30
0.0
 10
814.2119140625
 20
518.7099609375
 30
0.0
 10
816.326171875
 20
518.7099609375
 30
0.0
 10
818.4404296875
 20
518.7099609375
 30
0.0
 10
820.5546875
 20
518.7099609375
 30
0.0
 10
820.818359375
 20
518.7099609375
 30
0.0
 10
821.0830078125
 20
518.7099609375
 30
0.0
 10
821.34765625
 20
518.7099609375
 30
0.0
 10
821.4619140625
 20
518.7099609375
 30
0.0
 10
821.6455078125
 20
518.8115234375
 30
0.0
 10
821.6455078125
 20
518.6123046875
 30
0.0
 10
821.6455078125
 20
518.47998046875
 30
0.0
 10
821.6455078125
 20
518.34765625
 30
0.0
 10
821.6455078125
 20
518.2158203125
 30
0.0
 10
821.6455078125
 20
517.68798828125
 30
0.0
 10
821.6455078125
 20
517.1611328125
 30
0.0
 10
821.6455078125
 20
516.63330078125
 30
0.0
 10
821.6455078125
 20
515.58203125
 30
0.0
 10
821.6455078125
 20
514.53125
 30
0.0
 10
821.6455078125
 20
513.47900390625
 30
0.0
 10
821.6455078125
 20
505.25048828125
 30
0.0
 10
821.6455078125
 20
497.02197265625
 30
0.0
 10
821.6455078125
 20
488.7939453125
 30
0.0
 10
821.6455078125
 20
451.02490234375
 30
0.0
 10
821.6455078125
 20
413.2568359375
 30
0.0
 10
821.6455078125
 20
375.48779296875
 30
0.0
 10
821.6455078125
 20
359.9091796875
 30
0.0
 10
821.6455078125
 20
344.33056640625
 30
0.0
 10
821.6455078125
 20
328.751953125
 30
0.0
 10
821.6455078125
 20
321.78857421875
 30
0.0
 10
821.6455078125
 20
314.82568359375
 30
0.0
 10
821.6455078125
 20
307.86279296875
 30
0.0
 10
821.6455078125
 20
304.587890625
 30
0.0
 10
821.6455078125
 20
301.31298828125
 30
0.0
 10
821.6455078125
 20
298.0380859375
 30
0.0
 10
821.6455078125
 20
295.048828125
 30
0.0
 10
822.16015625
 20
289.740234375
 30
0.0
 10
820.439453125
 20
286.759765625
 30
0.0
  0
SPLINE
  5
6B
330
1F
100
AcDbEntity
  8
topB
 62
   178
420
        0
370
    35
100
AcDbSpline
210
0.0
220
0.0
230
1.0
 70
    11
 71
     3
 72
    17
 73
    13
 74
     0
 42
0.0000000001
 43
0.0000000001
 40
0.0
 40
0.0
 40
0.0
 40
0.0
 40
1.0
 40
1.0
 40
1.0
 40
2.0
 40
2.0
 40
2.0
 40
3.0
 40
3.0
 40
3.0
 40
4.0
 40
4.0
 40
4.0
 40
4.0
 10
698.837890625
 20
97.3515625
 30
0.0
 10
698.837890625
 20
100.091796875
 30
0.0
 10
696.6171875
 20
102.3125
 30
0.0
 10
693.876953125
 20
102.3125
 30
0.0
 10
691.13671875
 20
102.3125
 30
0.0
 10
688.916015625
 20
100.091796875
 30
0.0
 10
688.916015625
 20
97.3515625
 30
0.0
 10
688.916015625
 20
94.6123046875
 30
0.0
 10
691.13671875
 20
92.3916015625
 30
0.0
 10
693.876953125
 20
92.3916015625
 30
0.0
 10
696.6171875
 20
92.3916015625
 30
0.0
 10
698.837890625
 20
94.6123046875
 30
0.0
 10
698.837890625
 20
97.3515625
 30
0.0
  0
SPLINE
  5
6C
330
1F
100
AcDbEntity
  8
topB
 62
   178
420
        0
370
    35
100
AcDbSpline
210
0.0
220
0.0
230
1.0
 70
    11
 71
     3
 72
    17
 73
    13
 74
     0
 42
0.0000000001
 43
0.0000000001
 40
0.0
 40
0.0
 40
0.0
 40
0.0
 40
1.0
 40
1.0
 40
1.0
 40
2.0
 40
2.0
 40
2.0
 40
3.0
 40
3.0
 40
3.0
 40
4.0
 40
4.0
 40
4.0
 40
4.0
 10
698.837890625
 20
-84.0654296875
 30
0.0
 10
698.837890625
 20
-81.3251953125
 30
0.0
 10
696.6171875
 20
-79.1044921875
 30
0.0
 10
693.876953125
 20
-79.1044921875
 30
0.0
 10
691.13671875
 20
-79.1044921875
 30
0.0
 10
688.916015625
 20
-81.3251953125
 30
0.0
 10
688.916015625
 20
-84.0654296875
 30
0.0
 10
688.916015625
 20
-86.8046875
 30
0.0
 10
691.13671875
 20
-89.0263671875
 30
0.0
 10
693.876953125
 20
-89.0263671875
 30
0.0
 10
696.6171875
 20
-89.0263671875
 30
0.0
 10
698.837890625
 20
-86.8046875
 30
0.0
 10
698.837890625
 20
-84.0654296875
 30
0.0
  0
SPLINE
  5
6D
330
1F
100
AcDbEntity
  8
topB
 62
   178
420
        0
370
    35
100
AcDbSpline
210
0.0
220
0.0
230
1.0
 70
    11
 71
     3
 72
    17
 73
    13
 74
     0
 42
0.0000000001
 43
0.0000000001
 40
0.0
 40
0.0
 40
0.0
 40
0.0
 40
1.0
 40
1.0
 40
1.0
 40
2.0
 40
2.0
 40
2.0
 40
3.0
 40
3.0
 40
3.0
 40
4.0
 40
4.0
 40
4.0
 40
4.0
 10
449.388671875
 20
-84.0654296875
 30
0.0
 10
449.388671875
 20
-81.3251953125
 30
0.0
 10
447.16796875
 20
-79.1044921875
 30
0.0
 10
444.427734375
 20
-79.1044921875
 30
0.0
 10
441.6884765625
 20
-79.1044921875
 30
0.0
 10
439.466796875
 20
-81.3251953125
 30
0.0
 10
439.466796875
 20
-84.0654296875
 30
0.0
 10
439.466796875
 20
-86.8046875
 30
0.0
 10
441.6884765625
 20
-89.0263671875
 30
0.0
 10
444.427734375
 20
-89.0263671875
 30
0.0
 10
447.16796875
 20
-89.0263671875
 30
0.0
 10
449.388671875
 20
-86.8046875
 30
0.0
 10
449.388671875
 20
-84.0654296875
 30
0.0
  0
SPLINE
  5
6E
330
1F
100
AcDbEntity
  8
topB
 62
   178
420
        0
370
    35
100
AcDbSpline
210
0.0
220
0.0
230
1.0
 70
    11
 71
     3
 72
   143
 73
   139
 74
     0
 42
0.0000000001
 43
0.0000000001
 40
0.0
 40
0.0
 40
0.0
 40
0.0
 40
1.0
 40
1.0
 40
1.0
 40
2.0
 40
2.0
 40
2.0
 40
3.0
 40
3.0
 40
3.0
 40
4.0
 40
4.0
 40
4.0
 40
5.0
 40
5.0
 40
5.0
 40
6.0
 40
6.0
 40
6.0
 40
7.0
 40
7.0
 40
7.0
 40
8.0
 40
8.0
 40
8.0
 40
9.0
 40
9.0
 40
9.0
 40
10.0
 40
10.0
 40
10.0
 40
11.0
 40
11.0
 40
11.0
 40
12.0
 40
12.0
 40
12.0
 40
13.0
 40
13.0
 40
13.0
 40
14.0
 40
14.0
 40
14.0
 40
15.0
 40
15.0
 40
15.0
 40
16.0
 40
16.0
 40
16.0
 40
17.0
 40
17.0
 40
17.0
 40
18.0
 40
18.0
 40
18.0
 40
19.0
 40
19.0
 40
19.0
 40
20.0
 40
20.0
 40
20.0
 40
21.0
 40
21.0
 40
21.0
 40
22.0
 40
22.0
 40
22.0
 40
23.0
 40
23.0
 40
23.0
 40
24.0
 40
24.0
 40
24.0
 40
25.0
 40
25.0
 40
25.0
 40
26.0
 40
26.0
 40
26.0
 40
27.0
 40
27.0
 40
27.0
 40
28.0
 40
28.0
 40
28.0
 40
29.0
 40
29.0
 40
29.0
 40
30.0
 40
30.0
 40
30.0
 40
31.0
 40
31.0
 40
31.0
 40
32.0
 40
32.0
 40
32.0
 40
33.0
 40
33.0
 40
33.0
 40
34.0
 40
34.0
 40
34.0
 40
35.0
 40
35.0
 40
35.0
 40
36.0
 40
36.0
 40
36.0
 40
37.0
 40
37.0
 40
37.0
 40
38.0
 40
38.0
 40
38.0
 40
39.0
 40
39.0
 40
39.0
 40
40.0
 40
40.0
 40
40.0
 40
41.0
 40
41.0
 40
41.0
 40
42.0
 40
42.0
 40
42.0
 40
43.0
 40
43.0
 40
43.0
 40
44.0
 40
44.0
 40
44.0
 40
45.0
 40
45.0
 40
45.0
 40
46.0
 40
46.0
 40
46.0
 40
46.0
 10
820.439453125
 20
-109.279296875
 30
0.0
 10
803.3134765625
 20
-138.943359375
 30
0.0
 10
785.388671875
 20
-168.04296875
 30
0.0
 10
766.2734375
 20
-196.4755859375
 30
0.0
 10
757.49609375
 20
-209.5322265625
 30
0.0
 10
748.486328125
 20
-222.4140625
 30
0.0
 10
739.1904296875
 20
-235.1064453125
 30
0.0
 10
738.0654296875
 20
-236.6416015625
 30
0.0
 10
736.9375
 20
-238.173828125
 30
0.0
 10
735.8046875
 20
-239.703125
 30
0.0
 10
735.2421875
 20
-240.462890625
 30
0.0
 10
734.6767578125
 20
-241.22265625
 30
0.0
 10
734.1123046875
 20
-241.9814453125
 30
0.0
 10
733.478515625
 20
-242.83203125
 30
0.0
 10
732.947265625
 20
-243.7490234375
 30
0.0
 10
732.1796875
 20
-244.509765625
 30
0.0
 10
728.6376953125
 20
-248.0205078125
 30
0.0
 10
723.2724609375
 20
-247.1181640625
 30
0.0
 10
719.2900390625
 20
-247.1181640625
 30
0.0
 10
710.2626953125
 20
-247.1181640625
 30
0.0
 10
701.234375
 20
-247.1181640625
 30
0.0
 10
692.20703125
 20
-247.1181640625
 30
0.0
 10
624.7890625
 20
-247.1181640625
 30
0.0
 10
557.37109375
 20
-247.1181640625
 30
0.0
 10
489.9521484375
 20
-247.1181640625
 30
0.0
 10
471.978515625
 20
-247.1181640625
 30
0.0
 10
454.0029296875
 20
-247.1181640625
 30
0.0
 10
436.0283203125
 20
-247.1181640625
 30
0.0
 10
431.53515625
 20
-247.1181640625
 30
0.0
 10
427.041015625
 20
-247.1181640625
 30
0.0
 10
422.5478515625
 20
-247.1181640625
 30
0.0
 10
420.30078125
 20
-247.1181640625
 30
0.0
 10
418.0537109375
 20
-247.1181640625
 30
0.0
 10
415.806640625
 20
-247.1181640625
 30
0.0
 10
413.537109375
 20
-247.1181640625
 30
0.0
 10
411.4072265625
 20
-247.21875
 30
0.0
 10
409.244140625
 20
-246.076171875
 30
0.0
 10
407.177734375
 20
-244.984375
 30
0.0
 10
406.09765625
 20
-243.2158203125
 30
0.0
 10
404.8046875
 20
-241.4794921875
 30
0.0
 10
403.677734375
 20
-239.9638671875
 30
0.0
 10
402.5546875
 20
-238.4453125
 30
0.0
 10
401.435546875
 20
-236.923828125
 30
0.0
 10
399.171875
 20
-233.84765625
 30
0.0
 10
396.92578125
 20
-230.759765625
 30
0.0
 10
394.6943359375
 20
-227.6591796875
 30
0.0
 10
375.638671875
 20
-201.1787109375
 30
0.0
 10
357.8017578125
 20
-173.974609375
 30
0.0
 10
340.7705078125
 20
-146.16015625
 30
0.0
 10
335.2119140625
 20
-137.08203125
 30
0.0
 10
329.7470703125
 20
-127.94921875
 30
0.0
 10
324.3671875
 20
-118.7646484375
 30
0.0
 10
322.994140625
 20
-116.421875
 30
0.0
 10
321.6279296875
 20
-114.0751953125
 30
0.0
 10
320.265625
 20
-111.7255859375
 30
0.0
 10
318.9248046875
 20
-109.4111328125
 30
0.0
 10
317.6455078125
 20
-107.2939453125
 30
0.0
 10
317.6455078125
 20
-104.408203125
 30
0.0
 10
317.6455078125
 20
-101.26171875
 30
0.0
 10
317.6455078125
 20
-98.115234375
 30
0.0
 10
317.6455078125
 20
-94.9677734375
 30
0.0
 10
317.6455078125
 20
-81.033203125
 30
0.0
 10
317.6455078125
 20
-67.09765625
 30
0.0
 10
317.6455078125
 20
-53.162109375
 30
0.0
 10
317.6455078125
 20
-18.8193359375
 30
0.0
 10
317.6455078125
 20
15.5224609375
 30
0.0
 10
317.6455078125
 20
49.865234375
 30
0.0
 10
317.6455078125
 20
65.7626953125
 30
0.0
 10
317.6455078125
 20
81.6611328125
 30
0.0
 10
317.6455078125
 20
97.55859375
 30
0.0
 10
317.6455078125
 20
101.7421875
 30
0.0
 10
317.6455078125
 20
105.92578125
 30
0.0
 10
317.6455078125
 20
110.109375
 30
0.0
 10
317.6455078125
 20
112.232421875
 30
0.0
 10
317.6455078125
 20
114.3564453125
 30
0.0
 10
317.6455078125
 20
116.4794921875
 30
0.0
 10
317.6455078125
 20
117.548828125
 30
0.0
 10
317.6455078125
 20
118.6181640625
 30
0.0
 10
317.6455078125
 20
119.6875
 30
0.0
 10
317.6455078125
 20
120.224609375
 30
0.0
 10
317.6455078125
 20
120.7607421875
 30
0.0
 10
317.6455078125
 20
121.2978515625
 30
0.0
 10
317.6455078125
 20
121.56640625
 30
0.0
 10
317.6455078125
 20
121.8349609375
 30
0.0
 10
317.6455078125
 20
122.1044921875
 30
0.0
 10
317.6455078125
 20
122.337890625
 30
0.0
 10
317.443359375
 20
122.7099609375
 30
0.0
 10
317.84765625
 20
122.7099609375
 30
0.0
 10
326.462890625
 20
122.7099609375
 30
0.0
 10
335.0791015625
 20
122.7099609375
 30
0.0
 10
343.6943359375
 20
122.7099609375
 30
0.0
 10
378.1572265625
 20
122.7099609375
 30
0.0
 10
412.62109375
 20
122.7099609375
 30
0.0
 10
447.083984375
 20
122.7099609375
 30
0.0
 10
514.501953125
 20
122.7099609375
 30
0.0
 10
581.919921875
 20
122.7099609375
 30
0.0
 10
649.3388671875
 20
122.7099609375
 30
0.0
 10
683.166015625
 20
122.7099609375
 30
0.0
 10
716.994140625
 20
122.7099609375
 30
0.0
 10
750.8212890625
 20
122.7099609375
 30
0.0
 10
767.7353515625
 20
122.7099609375
 30
0.0
 10
784.6484375
 20
122.7099609375
 30
0.0
 10
801.5625
 20
122.7099609375
 30
0.0
 10
805.791015625
 20
122.7099609375
 30
0.0
 10
810.01953125
 20
122.7099609375
 30
0.0
 10
814.248046875
 20
122.7099609375
 30
0.0
 10
816.3623046875
 20
122.7099609375
 30
0.0
 10
818.4765625
 20
122.7099609375
 30
0.0
 10
820.5908203125
 20
122.7099609375
 30
0.0
 10
820.85546875
 20
122.7099609375
 30
0.0
 10
821.119140625
 20
122.7099609375
 30
0.0
 10
821.3828125
 20
122.7099609375
 30
0.0
 10
821.7392578125
 20
122.7099609375
 30
0.0
 10
821.6455078125
 20
122.4150390625
 30
0.0
 10
821.6455078125
 20
122.1796875
 30
0.0
 10
821.6455078125
 20
121.65234375
 30
0.0
 10
821.6455078125
 20
121.125
 30
0.0
 10
821.6455078125
 20
120.5966796875
 30
0.0
 10
821.6455078125
 20
119.5458984375
 30
0.0
 10
821.6455078125
 20
118.494140625
 30
0.0
 10
821.6455078125
 20
117.443359375
 30
0.0
 10
821.6455078125
 20
109.21484375
 30
0.0
 10
821.6455078125
 20
100.986328125
 30
0.0
 10
821.6455078125
 20
92.7578125
 30
0.0
 10
821.6455078125
 20
54.98828125
 30
0.0
 10
821.6455078125
 20
17.2177734375
 30
0.0
 10
821.6455078125
 20
-20.552734375
 30
0.0
 10
821.6455078125
 20
-36.130859375
 30
0.0
 10
821.6455078125
 20
-51.7099609375
 30
0.0
 10
821.6455078125
 20
-67.2890625
 30
0.0
 10
821.6455078125
 20
-74.251953125
 30
0.0
 10
821.6455078125
 20
-81.2138671875
 30
0.0
 10
821.6455078125
 20
-88.1767578125
 30
0.0
 10
821.6455078125
 20
-91.4521484375
 30
0.0
 10
821.6455078125
 20
-94.7265625
 30
0.0
 10
821.6455078125
 20
-98.0009765625
 30
0.0
 10
821.6455078125
 20
-100.9912109375
 30
0.0
 10
822.16015625
 20
-106.298828125
 30
0.0
 10
820.439453125
 20
-109.279296875
 30
0.0
  0
SPLINE
  5
6F
330
1F
100
AcDbEntity
  8
topB
 62
   178
420
        0
370
    35
100
AcDbSpline
210
0.0
220
0.0
230
1.0
 70
    11
 71
     3
 72
    17
 73
    13
 74
     0
 42
0.0000000001
 43
0.0000000001
 40
0.0
 40
0.0
 40
0.0
 40
0.0
 40
1.0
 40
1.0
 40
1.0
 40
2.0
 40
2.0
 40
2.0
 40
3.0
 40
3.0
 40
3.0
 40
4.0
 40
4.0
 40
4.0
 40
4.0
 10
758.3369140625
 20
67.5341796875
 30
0.0
 10
758.3369140625
 20
75.361328125
 30
0.0
 10
751.9912109375
 20
81.70703125
 30
0.0
 10
744.1640625
 20
81.70703125
 30
0.0
 10
736.3359375
 20
81.70703125
 30
0.0
 10
729.990234375
 20
75.361328125
 30
0.0
 10
729.990234375
 20
67.5341796875
 30
0.0
 10
729.990234375
 20
59.7060546875
 30
0.0
 10
736.3359375
 20
53.3603515625
 30
0.0
 10
744.1640625
 20
53.3603515625
 30
0.0
 10
751.9912109375
 20
53.3603515625
 30
0.0
 10
758.3369140625
 20
59.7060546875
 30
0.0
 10
758.3369140625
 20
67.5341796875
 30
0.0
  0
SPLINE
  5
70
330
1F
100
AcDbEntity
  8
topB
 62
   178
420
        0
370
    35
100
AcDbSpline
210
0.0
220
0.0
230
1.0
 70
    11
 71
     3
 72
    17
 73
    13
 74
     0
 42
0.0000000001
 43
0.0000000001
 40
0.0
 40
0.0
 40
0.0
 40
0.0
 40
1.0
 40
1.0
 40
1.0
 40
2.0
 40
2.0
 40
2.0
 40
3.0
 40
3.0
 40
3.0
 40
4.0
 40
4.0
 40
4.0
 40
4.0
 10
346.701171875
 20
63.3095703125
 30
0.0
 10
346.701171875
 20
66.43359375
 30
0.0
 10
344.1689453125
 20
68.96484375
 30
0.0
 10
341.0458984375
 20
68.96484375
 30
0.0
 10
337.9228515625
 20
68.96484375
 30
0.0
 10
335.390625
 20
66.43359375
 30
0.0
 10
335.390625
 20
63.3095703125
 30
0.0
 10
335.390625
 20
60.1865234375
 30
0.0
 10
337.9228515625
 20
57.6552734375
 30
0.0
 10
341.0458984375
 20
57.6552734375
 30
0.0
 10
344.1689453125
 20
57.6552734375
 30
0.0
 10
346.701171875
 20
60.1865234375
 30
0.0
 10
346.701171875
 20
63.3095703125
 30
0.0
  0
SPLINE
  5
71
330
1F
100
AcDbEntity
  8
topB
 62
   178
420
        0
370
    35
100
AcDbSpline
210
0.0
220
0.0
230
1.0
 70
    11
 71
     3
 72
    17
 73
    13
 74
     0
 42
0.0000000001
 43
0.0000000001
 40
0.0
 40
0.0
 40
0.0
 40
0.0
 40
1.0
 40
1.0
 40
1.0
 40
2.0
 40
2.0
 40
2.0
 40
3.0
 40
3.0
 40
3.0
 40
4.0
 40
4.0
 40
4.0
 40
4.0
 10
353.1806640625
 20
-66.2900390625
 30
0.0
 10
353.1806640625
 20
-63.1669921875
 30
0.0
 10
350.6484375
 20
-60.634765625
 30
0.0
 10
347.525390625
 20
-60.634765625
 30
0.0
 10
344.40234375
 20
-60.634765625
 30
0.0
 10
341.87109375
 20
-63.1669921875
 30
0.0
 10
341.87109375
 20
-66.2900390625
 30
0.0
 10
341.87109375
 20
-69.4130859375
 30
0.0
 10
344.40234375
 20
-71.9453125
 30
0.0
 10
347.525390625
 20
-71.9453125
 30
0.0
 10
350.6484375
 20
-71.9453125
 30
0.0
 10
353.1806640625
 20
-69.4130859375
 30
0.0
 10
353.1806640625
 20
-66.2900390625
 30
0.0
  0
SPLINE
  5
72
330
1F
100
AcDbEntity
  8
topB
 62
   178
420
        0
370
    35
100
AcDbSpline
210
0.0
220
0.0
230
1.0
 70
    11
 71
     3
 72
    17
 73
    13
 74
     0
 42
0.0000000001
 43
0.0000000001
 40
0.0
 40
0.0
 40
0.0
 40
0.0
 40
1.0
 40
1.0
 40
1.0
 40
2.0
 40
2.0
 40
2.0
 40
3.0
 40
3.0
 40
3.0
 40
4.0
 40
4.0
 40
4.0
 40
4.0
 10
797.4208984375
 20
63.3095703125
 30
0.0
 10
797.4208984375
 20
66.43359375
 30
0.0
 10
794.888671875
 20
68.96484375
 30
0.0
 10
791.765625
 20
68.96484375
 30
0.0
 10
788.642578125
 20
68.96484375
 30
0.0
 10
786.1103515625
 20
66.43359375
 30
0.0
 10
786.1103515625
 20
63.3095703125
 30
0.0
 10
786.1103515625
 20
60.1865234375
 30
0.0
 10
788.642578125
 20
57.6552734375
 30
0.0
 10
791.765625
 20
57.6552734375
 30
0.0
 10
794.888671875
 20
57.6552734375
 30
0.0
 10
797.4208984375
 20
60.1865234375
 30
0.0
 10
797.4208984375
 20
63.3095703125
 30
0.0
  0
SPLINE
  5
73
330
1F
100
AcDbEntity
  8
topB
 62
   178
420
        0
370
    35
100
AcDbSpline
210
0.0
220
0.0
230
1.0
 70
    11
 71
     3
 72
    17
 73
    13
 74
     0
 42
0.0000000001
 43
0.0000000001
 40
0.0
 40
0.0
 40
0.0
 40
0.0
 40
1.0
 40
1.0
 40
1.0
 40
2.0
 40
2.0
 40
2.0
 40
3.0
 40
3.0
 40
3.0
 40
4.0
 40
4.0
 40
4.0
 40
4.0
 10
803.900390625
 20
-66.2900390625
 30
0.0
 10
803.900390625
 20
-63.1669921875
 30
0.0
 10
801.369140625
 20
-60.634765625
 30
0.0
 10
798.24609375
 20
-60.634765625
 30
0.0
 10
795.123046875
 20
-60.634765625
 30
0.0
 10
792.5908203125
 20
-63.1669921875
 30
0.0
 10
792.5908203125
 20
-66.2900390625
 30
0.0
 10
792.5908203125
 20
-69.4130859375
 30
0.0
 10
795.123046875
 20
-71.9453125
 30
0.0
 10
798.24609375
 20
-71.9453125
 30
0.0
 10
801.369140625
 20
-71.9453125
 30
0.0
 10
803.900390625
 20
-69.4130859375
 30
0.0
 10
803.900390625
 20
-66.2900390625
 30
0.0
  0
SPLINE
  5
74
330
1F
100
AcDbEntity
  8
topB
 62
   178
420
        0
370
    35
100
AcDbSpline
210
0.0
220
0.0
230
1.0
 70
    11
 71
     3
 72
    17
 73
    13
 74
     0
 42
0.0000000001
 43
0.0000000001
 40
0.0
 40
0.0
 40
0.0
 40
0.0
 40
1.0
 40
1.0
 40
1.0
 40
2.0
 40
2.0
 40
2.0
 40
3.0
 40
3.0
 40
3.0
 40
4.0
 40
4.0
 40
4.0
 40
4.0
 10
449.388671875
 20
97.3515625
 30
0.0
 10
449.388671875
 20
100.091796875
 30
0.0
 10
447.16796875
 20
102.3125
 30
0.0
 10
444.427734375
 20
102.3125
 30
0.0
 10
441.6884765625
 20
102.3125
 30
0.0
 10
439.466796875
 20
100.091796875
 30
0.0
 10
439.466796875
 20
97.3515625
 30
0.0
 10
439.466796875
 20
94.6123046875
 30
0.0
 10
441.6884765625
 20
92.3916015625
 30
0.0
 10
444.427734375
 20
92.3916015625
 30
0.0
 10
447.16796875
 20
92.3916015625
 30
0.0
 10
449.388671875
 20
94.6123046875
 30
0.0
 10
449.388671875
 20
97.3515625
 30
0.0
  0
ENDSEC
  0
SECTION
  2
OBJECTS
  0
DICTIONARY
  5
C
330
0
100
AcDbDictionary
281
     1
  3
ACAD_GROUP
350
D
  3
ACAD_LAYOUT
350
1A
  3
ACAD_MLINESTYLE
350
17
  3
ACAD_PLOTSETTINGS
350
19
  3
ACAD_PLOTSTYLENAME
350
E
  3
ACAD_TABLESTYLE
350
75
  3
ACAD_VISUALSTYLE
350
2A
  0
DICTIONARY
  5
D
102
{ACAD_REACTORS
330
C
102
}
330
C
100
AcDbDictionary
281
     1
  0
DICTIONARY
  5
1A
102
{ACAD_REACTORS
330
C
102
}
330
C
100
AcDbDictionary
281
     1
  3
Layout1
350
1E
  3
Layout2
350
26
  3
Model
350
22
  0
DICTIONARY
  5
17
102
{ACAD_REACTORS
330
C
102
}
330
C
100
AcDbDictionary
281
     1
  3
Standard
350
18
  0
DICTIONARY
  5
19
102
{ACAD_REACTORS
330
C
102
}
330
C
100
AcDbDictionary
281
     1
  0
ACDBDICTIONARYWDFLT
  5
E
102
{ACAD_REACTORS
330
C
102
}
330
C
100
AcDbDictionary
281
     1
  3
Normal
350
F
100
AcDbDictionaryWithDefault
340
F
  0
DICTIONARY
  5
75
102
{ACAD_REACTORS
330
C
102
}
330
C
100
AcDbDictionary
281
     1
  0
DICTIONARY
  5
2A
102
{ACAD_REACTORS
330
C
102
}
330
C
100
AcDbDictionary
281
     1
  3
2dWireframe
350
2F
  3
3D Hidden
350
31
  3
3dWireframe
350
30
  3
Basic
350
32
  3
Brighten
350
36
  3
ColorChange
350
3A
  3
Conceptual
350
34
  3
Dim
350
35
  3
Facepattern
350
39
  3
Flat
350
2B
  3
FlatWithEdges
350
2C
  3
Gouraud
350
2D
  3
GouraudWithEdges
350
2E
  3
Linepattern
350
38
  3
Realistic
350
33
  3
Thicken
350
37
  0
LAYOUT
  5
1E
102
{ACAD_REACTORS
330
1A
102
}
330
1A
100
AcDbPlotSettings
  1

  2
none_device
  4

  6

 40
0.0
 41
0.0
 42
0.0
 43
0.0
 44
0.0
 45
0.0
 46
0.0
 47
0.0
 48
0.0
 49
0.0
140
0.0
141
0.0
142
1.0
143
1.0
 70
   688
 72
     0
 73
     0
 74
     5
  7

 75
    16
 76
     0
 77
     2
 78
   300
147
1.0
148
0.0
149
0.0
100
AcDbLayout
  1
Layout1
 70
     1
 71
     1
 10
0.0
 20
0.0
 11
12.0
 21
9.0
 12
0.0
 22
0.0
 32
0.0
 14
1.000000000000000E+20
 24
1.000000000000000E+20
 34
1.000000000000000E+20
 15
-1.000000000000000E+20
 25
-1.000000000000000E+20
 35
-1.000000000000000E+20
146
0.0
 13
0.0
 23
0.0
 33
0.0
 16
1.0
 26
0.0
 36
0.0
 17
0.0
 27
1.0
 37
0.0
 76
     0
330
1B
  0
LAYOUT
  5
26
102
{ACAD_REACTORS
330
1A
102
}
330
1A
100
AcDbPlotSettings
  1

  2
none_device
  4

  6

 40
0.0
 41
0.0
 42
0.0
 43
0.0
 44
0.0
 45
0.0
 46
0.0
 47
0.0
 48
0.0
 49
0.0
140
0.0
141
0.0
142
1.0
143
1.0
 70
   688
 72
     0
 73
     0
 74
     5
  7

 75
    16
 76
     0
 77
     2
 78
   300
147
1.0
148
0.0
149
0.0
100
AcDbLayout
  1
Layout2
 70
     1
 71
     2
 10
0.0
 20
0.0
 11
0.0
 21
0.0
 12
0.0
 22
0.0
 32
0.0
 14
0.0
 24
0.0
 34
0.0
 15
0.0
 25
0.0
 35
0.0
146
0.0
 13
0.0
 23
0.0
 33
0.0
 16
1.0
 26
0.0
 36
0.0
 17
0.0
 27
1.0
 37
0.0
 76
     0
330
23
  0
LAYOUT
  5
22
102
{ACAD_REACTORS
330
1A
102
}
330
1A
100
AcDbPlotSettings
  1

  2
none_device
  4

  6

 40
0.0
 41
0.0
 42
0.0
 43
0.0
 44
0.0
 45
0.0
 46
0.0
 47
0.0
 48
0.0
 49
0.0
140
0.0
141
0.0
142
1.0
143
1.0
 70
  1712
 72
     0
 73
     0
 74
     0
  7

 75
     0
 76
     0
 77
     2
 78
   300
147
1.0
148
0.0
149
0.0
100
AcDbLayout
  1
Model
 70
     1
 71
     0
 10
0.0
 20
0.0
 11
12.0
 21
9.0
 12
0.0
 22
0.0
 32
0.0
 14
1.000000000000000E+20
 24
1.000000000000000E+20
 34
1.000000000000000E+20
 15
-1.000000000000000E+20
 25
-1.000000000000000E+20
 35
-1.000000000000000E+20
146
0.0
 13
0.0
 23
0.0
 33
0.0
 16
1.0
 26
0.0
 36
0.0
 17
0.0
 27
1.0
 37
0.0
 76
     0
330
1F
331
29
  0
MLINESTYLE
  5
18
102
{ACAD_REACTORS
330
17
102
}
330
17
100
AcDbMlineStyle
  2
Standard
 70
     0
  3

 62
   256
 51
90.0
 52
90.0
 71
     2
 49
0.5
 62
   256
  6
BYLAYER
 49
-0.5
 62
   256
  6
BYLAYER
  0
ACDBPLACEHOLDER
  5
F
102
{ACAD_REACTORS
330
E
102
}
330
E
  0
VISUALSTYLE
  5
2F
102
{ACAD_REACTORS
330
2A
102
}
330
2A
100
AcDbVisualStyle
  2
2dWireframe
 70
     4
 71
     0
 72
     2
 73
     0
 90
        0
 40
-0.6
 41
-30.0
 62
     5
 63
     7
421
 16777215
 74
     1
 91
        4
 64
     7
 65
   257
 75
     1
175
     1
 42
1.0
 92
        0
 66
   257
 43
1.0
 76
     1
 77
     6
 78
     2
 67
     7
 79
     5
170
     0
171
     0
290
     0
174
     0
 93
        1
 44
0.0
173
     0
291
     0
 45
0.0
1001
ACAD
1000
AcDbSavedByObjectVersion
1070
     0
  0
VISUALSTYLE
  5
31
102
{ACAD_REACTORS
330
2A
102
}
330
2A
100
AcDbVisualStyle
  2
3D Hidden
 70
     6
 71
     1
 72
     2
 73
     2
 90
        0
 40
-0.6
 41
-30.0
 62
     5
 63
     7
421
 16777215
 74
     2
 91
        2
 64
     7
 65
   257
 75
     2
175
     1
 42
40.0
 92
        0
 66
   257
 43
1.0
 76
     1
 77
     6
 78
     2
 67
     7
 79
     3
170
     0
171
     0
290
     0
174
     0
 93
        1
 44
0.0
173
     0
291
     0
 45
0.0
1001
ACAD
1000
AcDbSavedByObjectVersion
1070
     0
  0
VISUALSTYLE
  5
30
102
{ACAD_REACTORS
330
2A
102
}
330
2A
100
AcDbVisualStyle
  2
3dWireframe
 70
     5
 71
     0
 72
     2
 73
     0
 90
        0
 40
-0.6
 41
-30.0
 62
     5
 63
     7
421
 16777215
 74
     1
 91
        4
 64
     7
 65
   257
 75
     1
175
     1
 42
1.0
 92
        0
 66
   257
 43
1.0
 76
     1
 77
     6
 78
     2
 67
     7
 79
     5
170
     0
171
     0
290
     0
174
     0
 93
        1
 44
0.0
173
     0
291
     0
 45
0.0
1001
ACAD
1000
AcDbSavedByObjectVersion
1070
     0
  0
VISUALSTYLE
  5
32
102
{ACAD_REACTORS
330
2A
102
}
330
2A
100
AcDbVisualStyle
  2
Basic
 70
     7
 71
     1
 72
     0
 73
     1
 90
        0
 40
-0.6
 41
-30.0
 62
     5
 63
     7
421
 16777215
 74
     0
 91
        4
 64
     7
 65
   257
 75
     1
175
     1
 42
1.0
 92
        8
 66
     7
 43
1.0
 76
     1
 77
     6
 78
     2
 67
     7
 79
     5
170
     0
171
     0
290
     0
174
     0
 93
        1
 44
0.0
173
     0
291
     1
 45
0.0
1001
ACAD
1000
AcDbSavedByObjectVersion
1070
     0
  0
VISUALSTYLE
  5
36
102
{ACAD_REACTORS
330
2A
102
}
330
2A
100
AcDbVisualStyle
  2
Brighten
 70
    12
 71
     2
 72
     2
 73
     0
 90
        0
 40
-0.6
 41
-30.0
 62
     5
 63
     7
421
 16777215
 74
     1
 91
        4
 64
     7
 65
   257
 75
     1
175
     1
 42
1.0
 92
        8
 66
     7
 43
1.0
 76
     1
 77
     6
 78
     2
 67
     7
 79
     5
170
     0
171
     0
290
     0
174
     0
 93
        1
 44
50.0
173
     0
291
     1
 45
0.0
1001
ACAD
1000
AcDbSavedByObjectVersion
1070
     0
  0
VISUALSTYLE
  5
3A
102
{ACAD_REACTORS
330
2A
102
}
330
2A
100
AcDbVisualStyle
  2
ColorChange
 70
    16
 71
     2
 72
     2
 73
     3
 90
        0
 40
-0.6
 41
-30.0
 62
     5
 63
     8
421
  8421504
 74
     1
 91
        4
 64
     7
 65
   257
 75
     1
175
     1
 42
1.0
 92
        8
 66
     8
424
  8421504
 43
1.0
 76
     1
 77
     6
 78
     2
 67
     7
 79
     5
170
     0
171
     0
290
     0
174
     0
 93
        1
 44
0.0
173
     0
291
     1
 45
0.0
1001
ACAD
1000
AcDbSavedByObjectVersion
1070
     0
  0
VISUALSTYLE
  5
34
102
{ACAD_REACTORS
330
2A
102
}
330
2A
100
AcDbVisualStyle
  2
Conceptual
 70
     9
 71
     3
 72
     2
 73
     0
 90
        0
 40
-0.6
 41
-30.0
 62
     5
 63
     7
421
 16777215
 74
     2
 91
        2
 64
     7
 65
   257
 75
     1
175
     1
 42
40.0
 92
        8
 66
     7
 43
1.0
 76
     1
 77
     6
 78
     2
 67
     7
 79
     3
170
     0
171
     0
290
     0
174
     0
 93
        1
 44
0.0
173
     0
291
     0
 45
0.0
1001
ACAD
1000
AcDbSavedByObjectVersion
1070
     0
  0
VISUALSTYLE
  5
35
102
{ACAD_REACTORS
330
2A
102
}
330
2A
100
AcDbVisualStyle
  2
Dim
 70
    11
 71
     2
 72
     2
 73
     0
 90
        0
 40
-0.6
 41
-30.0
 62
     5
 63
     7
421
 16777215
 74
     1
 91
        4
 64
     7
 65
   257
 75
     1
175
     1
 42
1.0
 92
        8
 66
     7
 43
1.0
 76
     1
 77
     6
 78
     2
 67
     7
 79
     5
170
     0
171
     0
290
     0
174
     0
 93
        1
 44
-50.0
173
     0
291
     1
 45
0.0
1001
ACAD
1000
AcDbSavedByObjectVersion
1070
     0
  0
VISUALSTYLE
  5
39
102
{ACAD_REACTORS
330
2A
102
}
330
2A
100
AcDbVisualStyle
  2
Facepattern
 70
    15
 71
     2
 72
     2
 73
     0
 90
        0
 40
-0.6
 41
-30.0
 62
     5
 63
     7
421
 16777215
 74
     1
 91
        4
 64
     7
 65
   257
 75
     1
175
     1
 42
1.0
 92
        8
 66
     7
 43
1.0
 76
     1
 77
     6
 78
     2
 67
     7
 79
     5
170
     0
171
     0
290
     0
174
     0
 93
        1
 44
0.0
173
     0
291
     1
 45
0.0
1001
ACAD
1000
AcDbSavedByObjectVersion
1070
     0
  0
VISUALSTYLE
  5
2B
102
{ACAD_REACTORS
330
2A
102
}
330
2A
100
AcDbVisualStyle
  2
Flat
 70
     0
 71
     2
 72
     1
 73
     1
 90
        2
 40
-0.6
 41
30.0
 62
     5
 63
     7
421
 16777215
 74
     0
 91
        4
 64
     7
 65
   257
 75
     1
175
     1
 42
1.0
 92
        8
 66
     7
 43
1.0
 76
     1
 77
     6
 78
     2
 67
     7
 79
     5
170
     0
171
     0
290
     0
174
     0
 93
       13
 44
0.0
173
     0
291
     1
 45
0.0
1001
ACAD
1000
AcDbSavedByObjectVersion
1070
     0
  0
VISUALSTYLE
  5
2C
102
{ACAD_REACTORS
330
2A
102
}
330
2A
100
AcDbVisualStyle
  2
FlatWithEdges
 70
     1
 71
     2
 72
     1
 73
     1
 90
        2
 40
-0.6
 41
30.0
 62
     5
 63
     7
421
 16777215
 74
     1
 91
        4
 64
     7
 65
   257
 75
     1
175
     1
 42
1.0
 92
        0
 66
   257
 43
1.0
 76
     1
 77
     6
 78
     2
 67
     7
 79
     5
170
     0
171
     0
290
     0
174
     0
 93
       13
 44
0.0
173
     0
291
     1
 45
0.0
1001
ACAD
1000
AcDbSavedByObjectVersion
1070
     0
  0
VISUALSTYLE
  5
2D
102
{ACAD_REACTORS
330
2A
102
}
330
2A
100
AcDbVisualStyle
  2
Gouraud
 70
     2
 71
     2
 72
     2
 73
     1
 90
        2
 40
-0.6
 41
30.0
 62
     5
 63
     7
421
 16777215
 74
     0
 91
        4
 64
     7
 65
   257
 75
     1
175
     1
 42
1.0
 92
        0
 66
     7
 43
1.0
 76
     1
 77
     6
 78
     2
 67
     7
 79
     5
170
     0
171
     0
290
     0
174
     0
 93
       13
 44
0.0
173
     0
291
     1
 45
0.0
1001
ACAD
1000
AcDbSavedByObjectVersion
1070
     0
  0
VISUALSTYLE
  5
2E
102
{ACAD_REACTORS
330
2A
102
}
330
2A
100
AcDbVisualStyle
  2
GouraudWithEdges
 70
     3
 71
     2
 72
     2
 73
     1
 90
        2
 40
-0.6
 41
30.0
 62
     5
 63
     7
421
 16777215
 74
     1
 91
        4
 64
     7
 65
   257
 75
     1
175
     1
 42
1.0
 92
        0
 66
   257
 43
1.0
 76
     1
 77
     6
 78
     2
 67
     7
 79
     5
170
     0
171
     0
290
     0
174
     0
 93
       13
 44
0.0
173
     0
291
     1
 45
0.0
1001
ACAD
1000
AcDbSavedByObjectVersion
1070
     0
  0
VISUALSTYLE
  5
38
102
{ACAD_REACTORS
330
2A
102
}
330
2A
100
AcDbVisualStyle
  2
Linepattern
 70
    14
 71
     2
 72
     2
 73
     0
 90
        0
 40
-0.6
 41
-30.0
 62
     5
 63
     7
421
 16777215
 74
     1
 91
        4
 64
     7
 65
   257
 75
     7
175
     7
 42
1.0
 92
        8
 66
     7
 43
1.0
 76
     1
 77
     6
 78
     2
 67
     7
 79
     5
170
     0
171
     0
290
     0
174
     0
 93
        1
 44
0.0
173
     0
291
     1
 45
0.0
1001
ACAD
1000
AcDbSavedByObjectVersion
1070
     0
  0
VISUALSTYLE
  5
33
102
{ACAD_REACTORS
330
2A
102
}
330
2A
100
AcDbVisualStyle
  2
Realistic
 70
     8
 71
     2
 72
     2
 73
     0
 90
        0
 40
-0.6
 41
-30.0
 62
     5
 63
     7
421
 16777215
 74
     1
 91
        0
 64
     7
 65
   257
 75
     1
175
     1
 42
1.0
 92
        8
 66
     8
424
  7895160
 43
1.0
 76
     1
 77
     6
 78
     2
 67
     7
 79
     5
170
     0
171
     0
290
     0
174
     0
 93
       13
 44
0.0
173
     0
291
     0
 45
0.0
1001
ACAD
1000
AcDbSavedByObjectVersion
1070
     0
  0
VISUALSTYLE
  5
37
102
{ACAD_REACTORS
330
2A
102
}
330
2A
100
AcDbVisualStyle
  2
Thicken
 70
    13
 71
     2
 72
     2
 73
     0
 90
        0
 40
-0.6
 41
-30.0
 62
     5
 63
     7
421
 16777215
 74
     1
 91
        4
 64
     7
 65
   257
 75
     1
175
     1
 42
1.0
 92
       12
 66
     7
 43
1.0
 76
     1
 77
     6
 78
     2
 67
     7
 79
     5
170
     0
171
     0
290
     0
174
     0
 93
        1
 44
0.0
173
     0
291
     1
 45
0.0
1001
ACAD
1000
AcDbSavedByObjectVersion
1070
     0
  0
ENDSEC
  0
EOF
