<?xml version="1.0" encoding="utf-8"?>
<!-- Generator: Adobe Illustrator 16.0.4, SVG Export Plug-In . SVG Version: 6.00 Build 0)  -->
<!DOCTYPE svg PUBLIC "-//W3C//DTD SVG 1.1//EN" "http://www.w3.org/Graphics/SVG/1.1/DTD/svg11.dtd">
<svg version="1.1" xmlns="http://www.w3.org/2000/svg" xmlns:xlink="http://www.w3.org/1999/xlink" x="0px" y="0px" width="2072px"
	 height="1704px" viewBox="0 0 2072 1704" enable-background="new 0 0 2072 1704" xml:space="preserve">
<g id="bottomA">
	<circle fill="none" stroke="#7D26CD" stroke-linecap="round" stroke-linejoin="round" cx="676.763" cy="390.291" r="9"/>
	<circle fill="none" stroke="#7D26CD" stroke-linecap="round" stroke-linejoin="round" cx="226.043" cy="390.291" r="9"/>
	<circle fill="none" stroke="#7D26CD" stroke-linecap="round" stroke-linejoin="round" cx="670.283" cy="260.69" r="9"/>
	<circle fill="none" stroke="#7D26CD" stroke-linecap="round" stroke-linejoin="round" cx="219.563" cy="260.69" r="9"/>
	<path fill="none" stroke="#7D26CD" stroke-linecap="round" stroke-linejoin="round" d="M197.369,633.14
		c40.732,70.551,81.464,141.101,122.196,211.65c1.607,2.784,4.579,4.5,7.794,4.5c40.268,0,80.536,0,120.804,0
		c40.268,0,80.536,0,120.804,0c3.215,0,6.187-1.716,7.794-4.5c40.732-70.55,81.464-141.1,122.196-211.65
		c0.829-1.435,1.206-2.843,1.206-4.5c0-10.449,0-20.899,0-31.35c0-132,0-264,0-396c-168,0-336,0-504,0c0,132,0,264,0,396
		c0,10.45,0,20.9,0,31.35C196.163,630.297,196.541,631.705,197.369,633.14z"/>
	<polygon fill="none" stroke="#7D26CD" stroke-linecap="round" stroke-linejoin="round" points="558.914,462.997 627.361,673.656 
		448.163,803.852 268.965,673.656 337.413,462.997 	"/>
	<circle fill="none" stroke="#7D26CD" stroke-linecap="round" stroke-linejoin="round" cx="599.311" cy="235.556" r="14.173"/>
</g>
<g id="bottomB">
	<circle fill="none" stroke="#0000FF" stroke-linecap="round" stroke-linejoin="round" cx="1135.447" cy="235.556" r="14.173"/>
	<circle fill="none" stroke="#0000FF" stroke-linecap="round" stroke-linejoin="round" cx="1212.899" cy="390.291" r="5.655"/>
	<circle fill="none" stroke="#0000FF" stroke-linecap="round" stroke-linejoin="round" cx="762.179" cy="390.291" r="5.655"/>
	<circle fill="none" stroke="#0000FF" stroke-linecap="round" stroke-linejoin="round" cx="755.699" cy="260.69" r="5.655"/>
	<circle fill="none" stroke="#0000FF" stroke-linecap="round" stroke-linejoin="round" cx="984.299" cy="615.462" r="64.075"/>
	<path fill="none" stroke="#0000FF" stroke-linecap="round" stroke-linejoin="round" d="M732.299,628.64c0-10.449,0-20.899,0-31.35
		c0-132,0-264,0-396c168,0,336,0,504,0c0,132,0,264,0,396c0,10.45,0,20.9,0,31.35c0,1.657-0.377,3.065-1.205,4.5
		c-40.732,70.551-81.465,141.101-122.196,211.65c-1.607,2.784-4.579,4.5-7.795,4.5c-40.268,0-80.535,0-120.803,0
		s-80.536,0-120.804,0c-3.215,0-6.187-1.716-7.794-4.5c-40.732-70.55-81.464-141.1-122.196-211.65
		C732.677,631.705,732.299,630.297,732.299,628.64z"/>
	<circle fill="none" stroke="#0000FF" stroke-linecap="round" stroke-linejoin="round" cx="1206.419" cy="260.69" r="5.655"/>
</g>
<g id="midA">
	<circle fill="none" stroke="#007F00" stroke-linecap="round" stroke-linejoin="round" cx="189.683" cy="968.09" r="9"/>
	<circle fill="none" stroke="#007F00" stroke-linecap="round" stroke-linejoin="round" cx="196.163" cy="1097.69" r="9"/>
	<circle fill="none" stroke="#007F00" stroke-linecap="round" stroke-linejoin="round" cx="640.403" cy="968.09" r="9"/>
	<circle fill="none" stroke="#007F00" stroke-linecap="round" stroke-linejoin="round" cx="646.883" cy="1097.69" r="9"/>
	<circle fill="none" stroke="#007F00" stroke-linecap="round" stroke-linejoin="round" cx="569.431" cy="942.956" r="14.173"/>
	<path fill="none" stroke="#007F00" stroke-linecap="round" stroke-linejoin="round" d="M446.63,1433.63
		c32.205-23.398,64.41-46.797,96.616-70.195c-15.911-48.968-31.821-97.935-47.731-146.902c-51.487,0-102.975,0-154.462,0
		c-15.91,48.968-31.821,97.935-47.731,146.902c32.205,23.398,64.41,46.797,96.615,70.195c0,38.02,0,76.04,0,114.06
		c0,4.971-4.029,9-9,9c-27.819,0-55.638,0-83.457,0c-3.215,0-6.187-1.715-7.794-4.5c-40.732-70.55-81.464-141.1-122.196-211.649
		c-0.829-1.435-1.206-2.843-1.206-4.5c0-10.45,0-20.9,0-31.35c0-132,0-264,0-396c168,0,336,0,504,0c0,132,0,264,0,396
		c0,10.449,0,20.899,0,31.35c0,1.657-0.377,3.065-1.206,4.5c-40.732,70.55-81.464,141.1-122.196,211.649
		c-1.608,2.785-4.579,4.5-7.794,4.5c-27.819,0-55.638,0-83.457,0c-4.971,0-9-4.029-9-9
		C446.63,1509.67,446.63,1471.649,446.63,1433.63z"/>
</g>
<g id="midB">
	<circle fill="none" stroke="#996633" stroke-linecap="round" stroke-linejoin="round" cx="1111.058" cy="942.956" r="14.173"/>
	<circle fill="none" stroke="#996633" stroke-linecap="round" stroke-linejoin="round" cx="731.31" cy="968.09" r="5.655"/>
	<circle fill="none" stroke="#996633" stroke-linecap="round" stroke-linejoin="round" cx="737.79" cy="1097.69" r="5.655"/>
	<circle fill="none" stroke="#996633" stroke-linecap="round" stroke-linejoin="round" cx="1182.03" cy="968.09" r="5.655"/>
	<circle fill="none" stroke="#996633" stroke-linecap="round" stroke-linejoin="round" cx="1188.51" cy="1097.69" r="5.655"/>
	<path fill="none" stroke="#996633" stroke-linecap="round" stroke-linejoin="round" d="M1210.705,1340.54
		c-40.732,70.55-81.465,141.1-122.197,211.649c-1.607,2.785-4.578,4.5-7.794,4.5c-27.819,0-55.638,0-83.457,0c-4.971,0-9-4.029-9-9
		c0-38.591,0-77.183,0-115.774c0-3.847,2.445-7.269,6.085-8.515c49.17-16.834,78.958-66.754,70.426-118.021
		c-8.533-51.267-52.885-88.847-104.857-88.847c-51.972,0-96.324,37.58-104.856,88.847c-8.533,51.268,21.255,101.188,70.425,118.021
		c3.64,1.246,6.085,4.668,6.085,8.515c0,38.592,0,77.184,0,115.774c0,4.971-4.03,9-9,9c-27.819,0-55.638,0-83.458,0
		c-3.215,0-6.187-1.715-7.794-4.5c-40.732-70.55-81.464-141.1-122.196-211.649c-0.829-1.435-1.206-2.843-1.206-4.5
		c0-10.45,0-20.9,0-31.35c0-132,0-264,0-396c168,0,336,0,504,0c0,132,0,264,0,396c0,10.449,0,20.899,0,31.35
		C1211.91,1337.697,1211.533,1339.105,1210.705,1340.54z"/>
</g>
<g id="topA">
	<circle fill="none" stroke="#00FFFF" stroke-linecap="round" stroke-linejoin="round" cx="1432.428" cy="226.648" r="4.961"/>
	<circle fill="none" stroke="#00FFFF" stroke-linecap="round" stroke-linejoin="round" cx="1681.877" cy="226.648" r="4.961"/>
	<path fill="none" stroke="#00FFFF" stroke-linecap="round" stroke-linejoin="round" d="M1396.114,360.886
		c-8.879,52.793,8.603,106.596,46.817,144.088c3.065,9.437,6.132,18.872,9.197,28.309c9.922,0,19.844,0,29.765,0
		c47.467,24.758,104.037,24.758,151.504,0c9.921,0,19.843,0,29.765,0c3.066-9.437,6.132-18.872,9.198-28.309
		c38.215-37.492,55.695-91.294,46.816-144.088c3.066-9.436,6.133-18.873,9.198-28.308c-8.026-5.832-16.053-11.664-24.08-17.496
		c-23.849-47.931-69.615-81.182-122.568-89.052c-8.027-5.832-16.054-11.664-24.081-17.495c-8.026,5.832-16.054,11.664-24.08,17.495
		c-52.954,7.87-98.721,41.121-122.569,89.052c-8.026,5.832-16.053,11.664-24.08,17.496
		C1389.982,342.013,1393.048,351.45,1396.114,360.886z"/>
	<circle fill="none" stroke="#00FFFF" stroke-linecap="round" stroke-linejoin="round" cx="1329.046" cy="260.69" r="9"/>
	<circle fill="none" stroke="#00FFFF" stroke-linecap="round" stroke-linejoin="round" cx="1335.525" cy="390.291" r="9"/>
	<circle fill="none" stroke="#00FFFF" stroke-linecap="round" stroke-linejoin="round" cx="1779.766" cy="260.69" r="9"/>
	<circle fill="none" stroke="#00FFFF" stroke-linecap="round" stroke-linejoin="round" cx="1786.246" cy="390.291" r="9"/>
	<circle fill="none" stroke="#00FFFF" stroke-linecap="round" stroke-linejoin="round" cx="1732.164" cy="256.466" r="14.173"/>
	<path fill="none" stroke="#00FFFF" stroke-linecap="round" stroke-linejoin="round" d="M1808.439,433.24
		c-17.126,29.664-35.051,58.764-54.165,87.198c-8.777,13.057-17.786,25.94-27.083,38.635c-1.124,1.535-2.252,3.067-3.385,4.597
		c-0.563,0.76-1.128,1.52-1.693,2.278c-0.632,0.849-1.161,1.764-1.922,2.526c-3.547,3.555-8.868,2.644-12.875,2.644
		c-9.027,0-18.055,0-27.082,0c-67.417,0-134.834,0-202.25,0c-17.975,0-35.949,0-53.923,0c-4.493,0-8.987,0-13.48,0
		c-2.247,0-4.493,0-6.74,0c-2.269,0-4.4,0.103-6.563-1.037c-2.068-1.09-3.15-2.856-4.443-4.595
		c-1.128-1.516-2.251-3.034-3.371-4.556c-2.263-3.076-4.51-6.164-6.74-9.265c-19.054-26.479-36.891-53.683-53.922-81.496
		c-5.558-9.077-11.021-18.208-16.401-27.39c-1.372-2.343-2.739-4.688-4.101-7.037c-1.344-2.32-2.653-4.435-2.653-7.337
		c0-3.146,0-6.292,0-9.439c0-13.933,0-27.867,0-41.8c0-34.336,0-68.672,0-103.009c0-15.897,0-31.794,0-47.691
		c0-4.184,0-8.367,0-12.55c0-2.124,0-4.246,0-6.37c0-1.069,0-2.139,0-3.208c0-0.537,0-1.073,0-1.61c0-0.269,0-0.538,0-0.807
		c0-0.234-0.246-0.632,0.175-0.632c8.616,0,17.232,0,25.848,0c34.463,0,68.926,0,103.389,0c67.417,0,134.834,0,202.251,0
		c33.826,0,67.652,0,101.479,0c16.913,0,33.826,0,50.74,0c4.229,0,8.456,0,12.685,0c2.114,0,4.229,0,6.343,0
		c0.264,0,0.528,0,0.793,0c0.114,0,0.298-0.102,0.298,0.098c0,0.132,0,0.265,0,0.396c0,0.528,0,1.055,0,1.583
		c0,1.051,0,2.102,0,3.154c0,8.229,0,16.457,0,24.685c0,37.769,0,75.537,0,113.306c0,15.579,0,31.157,0,46.736
		c0,6.963,0,13.926,0,20.889c0,3.275,0,6.55,0,9.825C1809.646,424.951,1810.16,430.26,1808.439,433.24z"/>
</g>
<g id="topB">
	<circle fill="none" stroke="#FFFFFF" stroke-linecap="round" stroke-linejoin="round" cx="1681.877" cy="622.648" r="4.961"/>
	<circle fill="none" stroke="#FFFFFF" stroke-linecap="round" stroke-linejoin="round" cx="1681.877" cy="804.065" r="4.961"/>
	<circle fill="none" stroke="#FFFFFF" stroke-linecap="round" stroke-linejoin="round" cx="1432.428" cy="804.065" r="4.961"/>
	<path fill="none" stroke="#FFFFFF" stroke-linecap="round" stroke-linejoin="round" d="M1808.439,829.279
		c-17.126,29.664-35.051,58.764-54.166,87.196c-8.777,13.057-17.787,25.938-27.083,38.631c-1.125,1.535-2.253,3.067-3.386,4.597
		c-0.562,0.76-1.128,1.52-1.692,2.278c-0.634,0.851-1.165,1.768-1.933,2.528c-3.542,3.511-8.907,2.608-12.89,2.608
		c-9.027,0-18.056,0-27.083,0c-67.418,0-134.836,0-202.255,0c-17.974,0-35.949,0-53.924,0c-4.493,0-8.987,0-13.48,0
		c-2.247,0-4.494,0-6.741,0c-2.27,0-4.399,0.101-6.562-1.042c-2.066-1.092-3.146-2.86-4.439-4.597
		c-1.127-1.516-2.25-3.034-3.369-4.556c-2.264-3.076-4.51-6.164-6.741-9.265c-19.056-26.48-36.893-53.685-53.924-81.499
		c-5.559-9.078-11.023-18.211-16.403-27.396c-1.373-2.343-2.739-4.689-4.102-7.039c-1.341-2.314-2.62-4.432-2.62-7.317
		c0-3.146,0-6.293,0-9.44c0-13.935,0-27.87,0-41.806c0-34.343,0-68.685,0-103.027c0-15.897,0-31.796,0-47.693
		c0-4.184,0-8.367,0-12.551c0-2.123,0-4.247,0-6.37c0-1.069,0-2.139,0-3.208c0-0.537,0-1.073,0-1.61c0-0.269,0-0.537,0-0.807
		c0-0.233-0.202-0.605,0.202-0.605c8.615,0,17.231,0,25.847,0c34.463,0,68.927,0,103.39,0c67.418,0,134.836,0,202.255,0
		c33.827,0,67.655,0,101.482,0c16.914,0,33.827,0,50.741,0c4.229,0,8.457,0,12.686,0c2.114,0,4.229,0,6.343,0
		c0.265,0,0.528,0,0.792,0c0.356,0,0.263,0.295,0.263,0.53c0,0.527,0,1.055,0,1.583c0,1.051,0,2.103,0,3.153
		c0,8.229,0,16.457,0,24.686c0,37.77,0,75.54,0,113.311c0,15.578,0,31.157,0,46.736c0,6.963,0,13.925,0,20.888
		c0,3.275,0,6.55,0,9.824C1809.646,820.991,1810.16,826.299,1808.439,829.279z"/>
	<circle fill="none" stroke="#FFFFFF" stroke-linecap="round" stroke-linejoin="round" cx="1732.164" cy="652.466" r="14.173"/>
	<circle fill="none" stroke="#FFFFFF" stroke-linecap="round" stroke-linejoin="round" cx="1329.046" cy="656.69" r="5.655"/>
	<circle fill="none" stroke="#FFFFFF" stroke-linecap="round" stroke-linejoin="round" cx="1335.526" cy="786.29" r="5.655"/>
	<circle fill="none" stroke="#FFFFFF" stroke-linecap="round" stroke-linejoin="round" cx="1779.766" cy="656.69" r="5.655"/>
	<circle fill="none" stroke="#FFFFFF" stroke-linecap="round" stroke-linejoin="round" cx="1786.246" cy="786.29" r="5.655"/>
	<circle fill="none" stroke="#FFFFFF" stroke-linecap="round" stroke-linejoin="round" cx="1432.428" cy="622.648" r="4.961"/>
</g>
</svg>
